<?xml version="1.0" encoding="UTF-8" standalone="no"?>
<svg
   xmlns:dc="http://purl.org/dc/elements/1.1/"
   xmlns:cc="http://creativecommons.org/ns#"
   xmlns:rdf="http://www.w3.org/1999/02/22-rdf-syntax-ns#"
   xmlns:svg="http://www.w3.org/2000/svg"
   xmlns="http://www.w3.org/2000/svg"
   xmlns:sodipodi="http://sodipodi.sourceforge.net/DTD/sodipodi-0.dtd"
   xmlns:inkscape="http://www.inkscape.org/namespaces/inkscape"
   width="129.42458mm"
   height="63.950191mm"
   version="1.1"
   viewBox="0 0 129.42458 63.950192"
   id="svg10123"
   sodipodi:docname="cloud_manager.svg"
   inkscape:version="0.92.5 (2060ec1f9f, 2020-04-08)">
  <sodipodi:namedview
     pagecolor="#ffffff"
     bordercolor="#666666"
     borderopacity="1"
     objecttolerance="10"
     gridtolerance="10"
     guidetolerance="10"
     inkscape:pageopacity="0"
     inkscape:pageshadow="2"
     inkscape:window-width="3840"
     inkscape:window-height="2072"
     id="namedview10125"
     showgrid="false"
     inkscape:zoom="3.3693593"
     inkscape:cx="21.450371"
     inkscape:cy="96.739707"
     inkscape:window-x="0"
     inkscape:window-y="48"
     inkscape:window-maximized="1"
     inkscape:current-layer="svg10123" />
  <defs
     id="defs9741">
    <marker
       inkscape:stockid="TriangleInM"
       orient="auto"
       refY="0"
       refX="0"
       id="TriangleInM"
       style="overflow:visible"
       inkscape:isstock="true">
      <path
         id="path8403"
         d="M 5.77,0 -2.88,5 V -5 Z"
         style="fill:#000000;fill-opacity:1;fill-rule:evenodd;stroke:#000000;stroke-width:1.00000003pt;stroke-opacity:1"
         transform="scale(-0.4)"
         inkscape:connector-curvature="0" />
    </marker>
    <marker
       inkscape:stockid="Arrow2Mstart"
       orient="auto"
       refY="0"
       refX="0"
       id="marker11886"
       style="overflow:visible"
       inkscape:isstock="true">
      <path
         id="path11884"
         style="fill:#000000;fill-opacity:1;fill-rule:evenodd;stroke:#000000;stroke-width:0.625;stroke-linejoin:round;stroke-opacity:1"
         d="M 8.7185878,4.0337352 -2.2072895,0.01601326 8.7185884,-4.0017078 c -1.7454984,2.3720609 -1.7354408,5.6174519 -6e-7,8.035443 z"
         transform="scale(0.6)"
         inkscape:connector-curvature="0" />
    </marker>
    <marker
       inkscape:stockid="Arrow2Mstart"
       orient="auto"
       refY="0"
       refX="0"
       id="marker11810"
       style="overflow:visible"
       inkscape:isstock="true">
      <path
         id="path11808"
         style="fill:#000000;fill-opacity:1;fill-rule:evenodd;stroke:#000000;stroke-width:0.625;stroke-linejoin:round;stroke-opacity:1"
         d="M 8.7185878,4.0337352 -2.2072895,0.01601326 8.7185884,-4.0017078 c -1.7454984,2.3720609 -1.7354408,5.6174519 -6e-7,8.035443 z"
         transform="scale(0.6)"
         inkscape:connector-curvature="0" />
    </marker>
    <marker
       inkscape:stockid="Arrow2Mstart"
       orient="auto"
       refY="0"
       refX="0"
       id="Arrow2Mstart"
       style="overflow:visible"
       inkscape:isstock="true">
      <path
         id="path8291"
         style="fill:#000000;fill-opacity:1;fill-rule:evenodd;stroke:#000000;stroke-width:0.625;stroke-linejoin:round;stroke-opacity:1"
         d="M 8.7185878,4.0337352 -2.2072895,0.01601326 8.7185884,-4.0017078 c -1.7454984,2.3720609 -1.7354408,5.6174519 -6e-7,8.035443 z"
         transform="scale(0.6)"
         inkscape:connector-curvature="0" />
    </marker>
    <marker
       id="marker18821"
       overflow="visible"
       orient="auto"
       style="overflow:visible">
      <path
         transform="scale(0.4)"
         d="M 5.77,0 -2.88,5 V -5 Z"
         id="path9720"
         inkscape:connector-curvature="0"
         style="fill-rule:evenodd;stroke:#000000;stroke-width:1.00000003pt" />
    </marker>
    <marker
       id="TriangleOutM"
       overflow="visible"
       orient="auto"
       style="overflow:visible">
      <path
         transform="scale(0.4)"
         d="M 5.77,0 -2.88,5 V -5 Z"
         id="path9723"
         inkscape:connector-curvature="0"
         style="fill-rule:evenodd;stroke:#000000;stroke-width:1.00000003pt" />
    </marker>
    <marker
       id="TriangleOutM-2-3"
       overflow="visible"
       orient="auto"
       style="overflow:visible">
      <path
         transform="scale(0.4)"
         d="M 5.77,0 -2.88,5 V -5 Z"
         id="path9726"
         inkscape:connector-curvature="0"
         style="fill-rule:evenodd;stroke:#000000;stroke-width:1.00000003pt" />
    </marker>
    <marker
       id="TriangleOutM-2-3-9"
       overflow="visible"
       orient="auto"
       style="overflow:visible">
      <path
         transform="scale(0.4)"
         d="M 5.77,0 -2.88,5 V -5 Z"
         id="path9729"
         inkscape:connector-curvature="0"
         style="fill-rule:evenodd;stroke:#000000;stroke-width:1.00000003pt" />
    </marker>
    <marker
       id="TriangleOutM-4"
       overflow="visible"
       orient="auto"
       style="overflow:visible">
      <path
         transform="scale(0.4)"
         d="M 5.77,0 -2.88,5 V -5 Z"
         id="path9732"
         inkscape:connector-curvature="0"
         style="fill-rule:evenodd;stroke:#000000;stroke-width:1.00000003pt" />
    </marker>
    <marker
       id="TriangleOutM-4-3"
       overflow="visible"
       orient="auto"
       style="overflow:visible">
      <path
         transform="scale(0.4)"
         d="M 5.77,0 -2.88,5 V -5 Z"
         id="path9735"
         inkscape:connector-curvature="0"
         style="fill:#ff0000;stroke:#ff0000;stroke-width:1.00000003pt" />
    </marker>
    <marker
       id="TriangleOutM-4-3-8"
       overflow="visible"
       orient="auto"
       style="overflow:visible">
      <path
         transform="scale(0.4)"
         d="M 5.77,0 -2.88,5 V -5 Z"
         id="path9738"
         inkscape:connector-curvature="0"
         style="fill:#ff0000;stroke:#ff0000;stroke-width:1.00000003pt" />
    </marker>
    <marker
       style="overflow:visible"
       id="TriangleOutM-4-8"
       overflow="visible"
       orient="auto">
      <path
         style="fill-rule:evenodd;stroke:#000000;stroke-width:1.00000003pt"
         inkscape:connector-curvature="0"
         transform="scale(0.4)"
         d="M 5.77,0 -2.88,5 V -5 Z"
         id="path9732-4" />
    </marker>
    <marker
       style="overflow:visible"
       id="TriangleOutM-4-3-8-1"
       overflow="visible"
       orient="auto">
      <path
         style="fill:#ff0000;stroke:#ff0000;stroke-width:1.00000003pt"
         inkscape:connector-curvature="0"
         transform="scale(0.4)"
         d="M 5.77,0 -2.88,5 V -5 Z"
         id="path9738-4" />
    </marker>
    <marker
       style="overflow:visible"
       id="TriangleOutM-4-3-8-1-3"
       overflow="visible"
       orient="auto">
      <path
         style="fill:#ff0000;stroke:#ff0000;stroke-width:1.00000003pt"
         inkscape:connector-curvature="0"
         transform="scale(0.4)"
         d="M 5.77,0 -2.88,5 V -5 Z"
         id="path9738-4-6" />
    </marker>
  </defs>
  <metadata
     id="metadata9743">
    <rdf:RDF>
      <cc:Work
         rdf:about="">
        <dc:format>image/svg+xml</dc:format>
        <dc:type
           rdf:resource="http://purl.org/dc/dcmitype/StillImage" />
        <dc:title />
        <cc:license
           rdf:resource="http://creativecommons.org/licenses/by/4.0/" />
      </cc:Work>
      <cc:License
         rdf:about="http://creativecommons.org/licenses/by/4.0/">
        <cc:permits
           rdf:resource="http://creativecommons.org/ns#Reproduction" />
        <cc:permits
           rdf:resource="http://creativecommons.org/ns#Distribution" />
        <cc:requires
           rdf:resource="http://creativecommons.org/ns#Notice" />
        <cc:requires
           rdf:resource="http://creativecommons.org/ns#Attribution" />
        <cc:permits
           rdf:resource="http://creativecommons.org/ns#DerivativeWorks" />
      </cc:License>
    </rdf:RDF>
  </metadata>
  <g
     id="g9785"
     transform="matrix(0.041341,0,0,0.041341,-2.987342,3.39601)">
    <g
       style="opacity:0.97000002"
       id="g9783">
      <path
         style="fill:#694b4b"
         inkscape:connector-curvature="0"
         id="path9745"
         d="m 377.42,291.94 c 0.527,-0.89 1.056,-1.604 1.582,-2.177 20.048,-31.267 30.987,-69.525 30.987,-109.02 0,-99.661 -68.71,-180.74 -153.16,-180.74 -84.452,0 -153.16,81.081 -153.16,180.74 0,39.944 11.189,78.609 31.674,110.06 0.217,0.303 0.436,0.633 0.654,0.992 0.663,1.004 1.336,2 2.017,2.988 7.66,9.938 17.481,7.643 20.316,6.702 0.265,-0.1 0.535,-0.198 0.803,-0.297 l 0.003,-10e-4 c 10.117,-3.747 21.351,-6.898 33.488,-9.378 l 21.214,-4.336 -16,-14.59 c -13.017,-11.865 -21.488,-27.957 -23.849,-45.31 l -1.196,-8.769 -8.822,-0.718 c -14.528,-1.181 -25.908,-13.531 -25.908,-28.116 0,-14.535 10.891,-26.608 25.334,-28.081 l 9.723,-0.993 0.132,-7.734 c 9.801,-2.888 53.011,-16.856 83.369,-46.581 7.153,8.349 33.972,35.949 83.8,46.734 l 0.127,7.582 9.728,0.993 c 14.437,1.475 25.326,13.547 25.326,28.08 0,14.584 -11.38,26.933 -25.907,28.116 l -8.822,0.718 -1.196,8.772 c -2.362,17.347 -10.83,33.438 -23.846,45.305 l -16,14.589 21.216,4.334 c 12.676,2.591 24.37,5.918 34.845,9.894 3.835,1.084 14.206,2.578 21.533,-9.757 z" />
      <path
         style="fill:#fbcb99"
         inkscape:connector-curvature="0"
         id="path9747"
         d="m 298.03,326.48 v -40.013 l -13.793,3.6 c -6.175,1.613 -12.557,2.431 -18.968,2.431 h -16.893 c -6.449,0 -12.873,-0.83 -19.092,-2.466 l -13.813,-3.635 v 40.056 l -41.079,9.83 8.933,31.888 3.704,2.252 c 5.544,3.376 20.665,11.719 41.286,16.24 9.699,2.126 19.476,3.204 29.059,3.205 h 0.004 c 23.757,0 47.007,-6.558 69.101,-19.49 l 3.843,-2.246 8.769,-31.303 z" />
      <path
         style="fill:#edba89"
         inkscape:connector-curvature="0"
         id="path9749"
         d="m 241.53,386.66 c -20.622,-4.522 -35.742,-12.864 -41.286,-16.24 l -8.789,-32.29 33.667,-8.114 v -38.538 l -9.65,-5.084 v 40.056 l -41.079,9.83 8.933,31.888 3.704,2.252 c 5.544,3.376 20.665,11.719 41.286,16.24 9.699,2.126 19.476,3.204 29.059,3.205 h 0.004 c 2.164,0 4.321,-0.073 6.475,-0.182 -7.406,-0.385 -14.886,-1.393 -22.324,-3.023 z" />
      <path
         style="fill:#f5f5f7"
         inkscape:connector-curvature="0"
         id="path9751"
         d="m 311.43,375.08 c -17.499,7.929 -35.809,11.949 -54.423,11.949 -9.634,0 -19.322,-1.078 -28.792,-3.206 -8.902,-2 -17.655,-4.895 -26.015,-8.607 l -16.089,-7.144 40.711,143.93 h 60 l 40.803,-144.26 z" />
      <polygon
         style="fill:#d2d2d7"
         id="polygon9753"
         points="201.22,374.78 186.11,368.07 226.82,512 240.04,512 " />
      <g
         style="fill:#324a5e"
         id="g9759">
        <path
           inkscape:connector-curvature="0"
           id="path9755"
           d="m 396.92,359.05 c -4.901,-2.801 -10.445,-5.447 -16.238,-7.905 l -2.621,-1.091 c -17.829,-7.3 -37.418,-12.785 -47.716,-15.453 l -49.692,177.4 h 140.25 c 15.63,0 18.407,-12.296 18.837,-18.223 v -52.876 c 10e-4,-43.23 -23.175,-69.336 -42.822,-81.855 z" />
        <path
           inkscape:connector-curvature="0"
           id="path9757"
           d="m 181.66,334.6 c -10.298,2.668 -29.888,8.152 -47.716,15.453 l -2.621,1.091 c -5.793,2.458 -11.337,5.104 -16.238,7.905 -19.647,12.519 -42.823,38.625 -42.823,81.855 v 52.876 c 0.433,5.926 3.208,18.222 18.838,18.222 h 140.25 z" />
      </g>
      <g
         style="fill:#283d4c"
         id="g9767">
        <path
           inkscape:connector-curvature="0"
           id="path9761"
           d="m 90.429,493.78 v -52.877 c 0,-43.23 23.177,-69.336 42.823,-81.855 4.901,-2.801 10.445,-5.447 16.238,-7.905 l 2.621,-1.091 c 10.429,-4.27 21.448,-7.912 30.869,-10.74 l -1.32,-4.713 c -10.298,2.668 -29.888,8.152 -47.716,15.453 l -2.621,1.091 c -5.793,2.458 -11.337,5.103 -16.238,7.905 -19.647,12.519 -42.824,38.625 -42.824,81.855 v 52.876 c 0.425,5.84 3.136,17.855 18.168,18.206 z" />
        <path
           inkscape:connector-curvature="0"
           id="path9763"
           d="m 380.43,512 v -72.637 c 0,-4.562 -3.696,-8.258 -8.258,-8.258 -4.562,0 -8.258,3.696 -8.258,8.258 V 512 Z" />
        <path
           inkscape:connector-curvature="0"
           id="path9765"
           d="m 147.12,512 v -72.637 c 0,-4.562 -3.696,-8.258 -8.258,-8.258 -4.562,0 -8.258,3.696 -8.258,8.258 V 512 Z" />
      </g>
      <path
         style="fill:#fbcb99"
         inkscape:connector-curvature="0"
         id="path9769"
         d="m 355.94,155.27 c -4.441,-1.384 -9.264,-0.576 -13.009,2.176 -3.74,2.754 -5.951,7.126 -5.951,11.773 v 41.635 c 0,4.644 2.209,9.013 5.951,11.764 2.542,1.872 5.581,2.845 8.661,2.845 1.451,0 2.922,-0.215 4.344,-0.663 2.801,-0.871 5.552,-2.131 8.177,-3.741 1.544,-0.946 2.899,-2.177 3.997,-3.616 1.611,-0.831 3.053,-1.954 4.257,-3.312 5.903,-6.676 9.155,-15.232 9.155,-24.099 0,-16.022 -10.28,-29.993 -25.582,-34.762 z" />
      <path
         style="fill:#edba89"
         inkscape:connector-curvature="0"
         id="path9771"
         d="m 170.56,157.44 c -3.744,-2.752 -8.572,-3.559 -13.007,-2.179 -15.301,4.773 -25.586,18.744 -25.586,34.764 0,16.028 10.285,29.998 25.586,34.769 1.423,0.447 2.89,0.663 4.349,0.663 3.075,0 6.114,-0.973 8.658,-2.843 3.746,-2.752 5.954,-7.122 5.954,-11.766 v -41.639 c 10e-4,-4.643 -2.207,-9.015 -5.954,-11.769 z" />
      <path
         style="fill:#fbcb99"
         inkscape:connector-curvature="0"
         id="path9773"
         d="m 345.8,155.83 c 0,0 0.061,-0.302 0.083,-0.782 v -0.728 c -0.09,-1.747 -0.859,-4.605 -4.487,-6.377 l -3.952,-0.948 c -38.232,-9.184 -61.118,-27.697 -71.957,-38.766 l -0.002,-0.002 c -9.219,-8.441 -18.778,0 -18.778,0 l -0.001,-0.001 c -26.04,22.651 -58.332,34.447 -71.253,38.529 l -1.731,0.546 c -0.003,0.001 -0.004,0.002 -0.004,0.002 -4.405,1.447 -5.655,4.26 -5.959,6.261 v 63.824 c 0,44.452 36.165,80.617 80.618,80.617 h 16.893 c 44.451,0 80.613,-36.165 80.613,-80.617 v -61.626 z" />
      <g
         style="fill:#edba89"
         id="g9779">
        <path
           inkscape:connector-curvature="0"
           id="path9775"
           d="m 262.42,106.01 c -8.153,-4.446 -15.706,2.213 -15.706,2.213 l -0.001,-0.001 c -26.04,22.651 -58.332,34.447 -71.253,38.529 l -1.731,0.546 c -0.003,0.001 -0.004,0.002 -0.004,0.002 -4.405,1.447 -5.655,4.26 -5.959,6.261 v 63.824 c 0,44.452 36.165,80.617 80.618,80.617 h 13.213 c -44.453,0 -80.618,-36.165 -80.618,-80.617 v -59.17 c 0,-7.273 5.335,-10.454 8.392,-11.686 0.658,-0.21 1.349,-0.435 2.091,-0.682 l 0.006,-0.001 h -0.002 c 14.771,-4.914 45.903,-17.149 70.599,-39.514 z" />
        <path
           inkscape:connector-curvature="0"
           id="path9777"
           d="m 263.9,215.76 c 3.036,0 5.505,2.47 5.505,5.505 0,3.035 -2.47,5.505 -5.505,5.505 h -14.067 c -3.036,0 -5.505,-2.47 -5.505,-5.505 V 194.43 c 0,-3.036 2.47,-5.505 5.505,-5.505 3.035,0 5.505,2.47 5.505,5.505 v 21.33 z" />
      </g>
      <path
         style="fill:#563b3b"
         inkscape:connector-curvature="0"
         id="path9781"
         d="m 135.99,291.8 c 0.663,1.004 1.336,2 2.017,2.988 7.964,10.335 18.266,7.441 20.62,6.598 0.17,-0.064 0.333,-0.13 0.502,-0.194 l -1.325,-1.793 c -24.263,-32.854 -37.625,-74.992 -37.625,-118.65 0,-96.392 64.274,-175.4 144.9,-180.48 -2.734,-0.171 -5.486,-0.264 -8.257,-0.264 -84.453,0 -153.16,81.081 -153.16,180.74 0,39.944 11.189,78.609 31.674,110.06 0.216,0.303 0.435,0.634 0.653,0.993 z" />
    </g>
  </g>
  <g
     id="g9807"
     transform="matrix(0.030982,0,0,0.030982,62.218658,6.27601)">
    <path
       style="fill:#3d5168"
       inkscape:connector-curvature="0"
       id="path9787"
       d="m 422,35 h -30 v 352 l 30,-60 c 16.5,0 30,-13.5 30,-30 V 65 C 452,48.5 438.5,35 422,35 Z" />
    <path
       style="fill:#57697d"
       inkscape:connector-curvature="0"
       id="path9789"
       d="M 422,65 C 422,48.5 408.5,35 392,35 H 75 C 58.5,35 45,48.5 45,65 v 232 c 0,16.5 13.5,30 30,30 L 248.5,387 392,327 c 16.5,0 30,-13.5 30,-30 L 347,181 Z" />
    <path
       style="fill:#3d5168"
       inkscape:connector-curvature="0"
       id="path9791"
       d="m 434.44,387 v 75 H 467 c 16.569,0 30,-13.431 30,-30 z" />
    <path
       style="fill:#57697d"
       inkscape:connector-curvature="0"
       id="path9793"
       d="M 78.576,402 0,432 c 0,16.569 13.431,30 30,30 H 196 L 248.5,414.121 301,462 h 133.44 c 16.569,0 30,-13.431 30,-30 v -30 z" />
    <path
       style="fill:#a6b0bd"
       inkscape:connector-curvature="0"
       id="path9795"
       d="m 196,402 h 105 v 60 H 196 Z" />
    <path
       style="fill:#a6b0bd"
       inkscape:connector-curvature="0"
       id="path9797"
       d="M 459.79,345.18 C 455.07,334.15 444.22,327 432.22,327 h -32.56 l 64.78,105 H 497 Z" />
    <path
       style="fill:#c0c8d2"
       inkscape:connector-curvature="0"
       id="path9799"
       d="M 427.23,345.18 432.218,357 408.713,371.972 445.141,387 464.44,432 H 0 L 37.21,345.18 C 41.93,334.15 52.78,327 64.78,327 h 334.88 c 12,0 22.84,7.15 27.57,18.18 z" />
    <path
       style="fill:#1e8aff"
       inkscape:connector-curvature="0"
       id="path9801"
       d="m 392,65 -85,116 85,116 h 30 V 65 Z" />
    <path
       style="fill:#54a5ff"
       inkscape:connector-curvature="0"
       id="path9803"
       d="M 75,65 H 392 V 297 H 75 Z" />
    <path
       style="fill:#57697d"
       inkscape:connector-curvature="0"
       id="path9805"
       d="M 445.14,387 432.217,357 H 64.777 L 51.92,387 Z" />
  </g>
  <g
     id="g9891"
     transform="matrix(0.11089,0,0,0.11089,31.659658,6.87601)">
    <path
       style="fill:#e6e7e8"
       inkscape:connector-curvature="0"
       id="path9809"
       d="m 123.5,40 a 5.31,5.31 0 0 0 -5.3,-5.3 H 60.373 v -1.775 a 3.186,3.186 0 0 1 3.182,-3.182 h 21.161 a 5.309,5.309 0 0 0 5.3,-5.3 v -3.892 a 5.309,5.309 0 0 0 -5.3,-5.3 H 48.292 A 3.185,3.185 0 0 1 45.11,12.069 V 9.591 a 1.061,1.061 0 1 0 -2.122,0 v 2.474 a 5.309,5.309 0 0 0 5.3,5.3 h 36.428 a 3.186,3.186 0 0 1 3.184,3.186 v 3.889 a 3.185,3.185 0 0 1 -3.182,3.182 H 63.555 a 5.309,5.309 0 0 0 -5.3,5.3 v 1.767 h -44.27 a 5.31,5.31 0 0 0 -5.3,5.3 v 51.523 a 5.309,5.309 0 0 0 5.3,5.3 h 5.894 v 2.913 a 18.165,18.165 0 0 0 4.948,12.459 c 0.107,1.031 0.021,4.768 -0.037,7.3 l -0.025,1.115 a 2.988,2.988 0 0 0 2.989,3.052 h 17.923 a 2.994,2.994 0 0 0 2.991,-2.99 v -8.075 a 20.642,20.642 0 0 0 4.845,-5.467 l 7.609,-10.305 h 9.937 l 7.584,10.267 a 20.85,20.85 0 0 0 4.871,5.5 v 8.076 a 2.994,2.994 0 0 0 2.991,2.99 h 17.923 a 2.986,2.986 0 0 0 2.989,-3.052 l -0.025,-1.115 c -0.058,-2.53 -0.144,-6.267 -0.037,-7.3 A 18.164,18.164 0 0 0 112.3,99.728 v -2.913 h 5.9 a 5.309,5.309 0 0 0 5.3,-5.3 z" />
    <rect
       style="fill:#6dc9f7"
       id="rect9811"
       rx="4"
       height="60.000999"
       width="112.7"
       y="31.511"
       x="5.5" />
    <path
       style="fill:#ffffff"
       inkscape:connector-curvature="0"
       id="path9813"
       d="M 114.2,31.511 H 9.5 a 4,4 0 0 0 -4,4 v 3 a 4,4 0 0 1 4,-4 h 104.7 a 4,4 0 0 1 4,4 v -3 a 4,4 0 0 0 -4,-4 z" />
    <g
       style="fill:#0089ef"
       id="g9855">
      <path
         inkscape:connector-curvature="0"
         id="path9815"
         d="m 17.598,39.182 h 7.16 v 7.16 h -7.16 z" />
      <path
         inkscape:connector-curvature="0"
         id="path9817"
         d="m 31.155,39.182 h 7.16 v 7.16 h -7.16 z" />
      <path
         inkscape:connector-curvature="0"
         id="path9819"
         d="m 44.712,39.182 h 7.16 v 7.16 h -7.16 z" />
      <path
         inkscape:connector-curvature="0"
         id="path9821"
         d="m 58.269,39.182 h 7.16 v 7.16 h -7.16 z" />
      <path
         inkscape:connector-curvature="0"
         id="path9823"
         d="m 71.825,39.182 h 7.16 v 7.16 h -7.16 z" />
      <path
         inkscape:connector-curvature="0"
         id="path9825"
         d="m 85.382,39.182 h 7.16 v 7.16 h -7.16 z" />
      <path
         inkscape:connector-curvature="0"
         id="path9827"
         d="m 98.939,39.182 h 7.16 v 7.16 h -7.16 z" />
      <path
         inkscape:connector-curvature="0"
         id="path9829"
         d="m 10.82,51.91 h 7.16 v 7.16 h -7.16 z" />
      <path
         inkscape:connector-curvature="0"
         id="path9831"
         d="m 26.89,57.369 a 3.606,3.606 0 0 1 3.838,1.7 h 0.808 V 51.91 h -7.159 v 7.16 h 0.19 a 3.509,3.509 0 0 1 2.323,-1.701 z" />
      <path
         inkscape:connector-curvature="0"
         id="path9833"
         d="m 37.933,51.91 h 7.16 v 7.16 h -7.16 z" />
      <path
         inkscape:connector-curvature="0"
         id="path9835"
         d="m 51.49,51.91 h 7.16 v 7.16 h -7.16 z" />
      <path
         inkscape:connector-curvature="0"
         id="path9837"
         d="m 65.047,51.91 h 7.16 v 7.16 h -7.16 z" />
      <path
         inkscape:connector-curvature="0"
         id="path9839"
         d="m 78.604,51.91 h 7.16 v 7.16 h -7.16 z" />
      <path
         inkscape:connector-curvature="0"
         id="path9841"
         d="m 96.807,57.369 a 3.507,3.507 0 0 1 2.322,1.7 H 99.32 V 51.91 h -7.16 v 7.16 h 0.809 a 3.6,3.6 0 0 1 3.838,-1.701 z" />
      <path
         inkscape:connector-curvature="0"
         id="path9843"
         d="m 105.72,51.91 h 7.16 v 7.16 h -7.16 z" />
      <path
         inkscape:connector-curvature="0"
         id="path9845"
         d="m 16.77,71.66 a 3.871,3.871 0 0 1 1.21,-2.817 v -4.2 H 10.82 V 71.8 h 5.95 z" />
      <path
         inkscape:connector-curvature="0"
         id="path9847"
         d="m 51.49,64.638 h 7.16 v 7.16 h -7.16 z" />
      <path
         inkscape:connector-curvature="0"
         id="path9849"
         d="m 65.047,64.638 h 7.16 v 7.16 h -7.16 z" />
      <path
         inkscape:connector-curvature="0"
         id="path9851"
         d="m 105.72,64.638 v 4.2 a 3.875,3.875 0 0 1 1.21,2.817 V 71.8 h 5.95 v -7.16 z" />
      <path
         inkscape:connector-curvature="0"
         id="path9853"
         d="M 77.965,77.367 H 45.732 v 7.159 H 52.7 a 3.6,3.6 0 0 1 4.042,0 h 10.22 a 3.6,3.6 0 0 1 4.043,0 h 6.964 z" />
    </g>
    <path
       style="fill:#ffd7e5"
       inkscape:connector-curvature="0"
       id="path9857"
       d="m 104.02,67.972 a 3.623,3.623 0 0 0 -4.332,3.551 L 99.678,61.05 a 3.708,3.708 0 0 0 -2.872,-3.681 3.623,3.623 0 0 0 -4.366,3.544 3.623,3.623 0 0 0 -4.333,-3.551 3.709,3.709 0 0 0 -2.908,3.688 v 5.465 a 3.622,3.622 0 0 0 -4.333,-3.55 3.709,3.709 0 0 0 -2.905,3.688 v 26.123 l -6.172,-7.547 a 3.619,3.619 0 0 0 -5.623,4.557 l 9.171,12.414 c 3.23,4.761 5.067,5.493 5.067,5.493 v 8.722 a 1.856,1.856 0 0 0 1.857,1.857 h 17.923 a 1.853,1.853 0 0 0 1.857,-1.894 c -0.083,-3.746 -0.227,-8.722 0.045,-9 a 17.079,17.079 0 0 0 4.84,-11.894 V 71.66 a 3.709,3.709 0 0 0 -2.906,-3.688 z" />
    <path
       style="fill:#ffd7e5"
       inkscape:connector-curvature="0"
       id="path9859"
       d="m 19.675,67.972 a 3.623,3.623 0 0 1 4.333,3.551 l 0.01,-10.473 a 3.707,3.707 0 0 1 2.872,-3.681 3.623,3.623 0 0 1 4.366,3.544 3.622,3.622 0 0 1 4.332,-3.551 3.71,3.71 0 0 1 2.906,3.688 v 5.465 a 3.621,3.621 0 0 1 4.332,-3.55 3.709,3.709 0 0 1 2.906,3.688 v 26.123 l 6.175,-7.547 a 3.619,3.619 0 1 1 5.623,4.557 L 48.359,102.2 c -3.231,4.761 -5.067,5.493 -5.067,5.493 v 8.722 a 1.857,1.857 0 0 1 -1.857,1.857 H 23.512 a 1.853,1.853 0 0 1 -1.857,-1.894 c 0.082,-3.746 0.227,-8.722 -0.045,-9 A 17.079,17.079 0 0 1 16.77,95.484 V 71.66 a 3.708,3.708 0 0 1 2.905,-3.688 z" />
    <path
       style="fill:#3a2c60"
       inkscape:connector-curvature="0"
       id="path9861"
       d="M 114.2,30.511 H 56.07 v -1.828 a 3.247,3.247 0 0 1 3.243,-3.244 H 80.474 A 5.248,5.248 0 0 0 85.716,20.2 V 16.308 A 5.249,5.249 0 0 0 80.474,11.065 H 44.049 A 3.246,3.246 0 0 1 40.807,7.822 V 5.348 a 1,1 0 1 0 -2,0 v 2.474 a 5.248,5.248 0 0 0 5.242,5.243 h 36.425 a 3.246,3.246 0 0 1 3.242,3.243 V 20.2 a 3.245,3.245 0 0 1 -3.242,3.242 H 59.313 a 5.25,5.25 0 0 0 -5.243,5.244 v 1.828 H 9.5 a 5.006,5.006 0 0 0 -5,5 v 52 a 5.006,5.006 0 0 0 5,5 h 6.2 v 2.973 a 18.1,18.1 0 0 0 4.946,12.431 c 0.11,1 0.025,4.749 -0.034,7.283 l -0.025,1.158 a 2.92,2.92 0 0 0 2.924,2.988 h 17.924 a 2.929,2.929 0 0 0 2.925,-2.926 V 108.3 a 20.589,20.589 0 0 0 4.858,-5.463 L 56.844,92.51 h 10.008 l 7.6,10.292 a 20.78,20.78 0 0 0 4.882,5.5 v 8.117 a 2.929,2.929 0 0 0 2.926,2.926 h 17.923 a 2.923,2.923 0 0 0 2.924,-2.987 l -0.025,-1.122 c -0.059,-2.548 -0.146,-6.314 -0.034,-7.319 A 18.105,18.105 0 0 0 108,95.485 v -2.973 h 6.2 a 5.006,5.006 0 0 0 5,-5 V 65.75 a 1,1 0 0 0 -2,0 v 21.762 a 3,3 0 0 1 -3,3 H 108 V 72.8 h 4.882 a 1,1 0 0 0 1,-1 v -7.161 a 1,1 0 0 0 -1,-1 h -7.16 a 1,1 0 0 0 -1,1 v 2.427 a 4.385,4.385 0 0 0 -0.5,-0.143 4.719,4.719 0 0 0 -3.469,0.67 l -0.006,-6.542 A 4.95,4.95 0 0 0 100.32,59.067 V 51.91 a 1,1 0 0 0 -1,-1 h -7.16 a 1,1 0 0 0 -1,1 v 4.949 a 4.734,4.734 0 0 0 -3.252,-0.546 4.43,4.43 0 0 0 -1.145,0.406 V 51.91 a 1,1 0 0 0 -1,-1 H 78.6 a 1,1 0 0 0 -1,1 v 7.16 a 1,1 0 0 0 1,1 h 5.64 a 5.046,5.046 0 0 0 -0.1,0.981 v 1.532 a 4.688,4.688 0 0 0 -7.24,4.069 v 9.714 H 46.8 V 66.652 A 4.686,4.686 0 0 0 39.563,62.583 V 61.051 A 4.97,4.97 0 0 0 39.457,60.07 h 5.636 a 1,1 0 0 0 1,-1 v -7.16 a 1,1 0 0 0 -1,-1 h -7.159 a 1,1 0 0 0 -1,1 v 4.809 a 4.45,4.45 0 0 0 -1.146,-0.406 4.731,4.731 0 0 0 -3.252,0.546 V 51.91 a 1,1 0 0 0 -1,-1 h -7.159 a 1,1 0 0 0 -1,1 v 7.154 a 4.961,4.961 0 0 0 -0.428,1.986 l -0.006,6.543 a 4.713,4.713 0 0 0 -3.467,-0.67 4.359,4.359 0 0 0 -0.5,0.143 v -2.427 a 1,1 0 0 0 -1,-1 H 10.82 a 1,1 0 0 0 -1,1 V 71.8 a 1,1 0 0 0 1,1 H 15.7 V 90.512 H 9.5 a 3,3 0 0 1 -3,-3 v -52 a 3,3 0 0 1 3,-3 h 104.7 a 3,3 0 0 1 3,3 v 14.071 a 1,1 0 0 0 2,0 V 35.511 a 5.006,5.006 0 0 0 -5,-5 z M 46.8,89.784 v -4.258 h 3.484 z m 11.521,0.728 0.039,-0.054 a 4.679,4.679 0 0 0 0.586,-4.932 h 5.8 a 4.68,4.68 0 0 0 -0.433,1.494 4.63,4.63 0 0 0 0.992,3.4 l 0.067,0.091 z M 76.9,89.784 73.418,85.526 H 76.9 Z M 111.881,65.639 V 70.8 h -3.956 a 4.879,4.879 0 0 0 -1.2,-2.446 V 65.639 Z M 98.32,52.91 v 3.912 a 4.409,4.409 0 0 0 -1.3,-0.5 4.712,4.712 0 0 0 -3.856,0.913 V 52.91 Z m -18.716,0 h 5.159 v 5.16 H 79.6 Z m -1.28,40.872 a 1.067,1.067 0 0 0 0.709,-1.006 V 66.652 a 2.655,2.655 0 0 1 2.037,-2.638 2.555,2.555 0 0 1 3.065,2.5 v 15.058 a 1.068,1.068 0 1 0 2.136,0 V 61.051 a 2.658,2.658 0 0 1 2.038,-2.64 2.553,2.553 0 0 1 3.063,2.5 v 20.661 a 1.069,1.069 0 1 0 2.137,0 V 60.913 a 2.554,2.554 0 0 1 3.089,-2.5 2.626,2.626 0 0 1 2.012,2.636 l 0.011,10.471 v 10.052 a 1.069,1.069 0 1 0 2.137,0 v -10.05 a 2.557,2.557 0 0 1 3.063,-2.5 2.659,2.659 0 0 1 2.037,2.64 v 23.823 a 15.988,15.988 0 0 1 -4.538,11.151 c -0.468,0.483 -0.551,0.822 -0.371,8.65 l 0.026,1.119 a 0.787,0.787 0 0 1 -0.79,0.8 H 82.262 a 0.789,0.789 0 0 1 -0.789,-0.789 V 107.7 a 1.113,1.113 0 0 0 -0.645,-0.98 c -0.016,-0.008 -1.7,-0.823 -4.631,-5.148 L 67,89.113 a 2.548,2.548 0 0 1 1.978,-4.155 2.556,2.556 0 0 1 1.989,0.946 l 6.175,7.548 a 1.064,1.064 0 0 0 1.182,0.33 z M 76.9,78.366 v 5.16 h -5.485 a 4.674,4.674 0 0 0 -4.869,0 h -9.39 a 4.574,4.574 0 0 0 -4.882,0 H 46.8 v -5.16 z M 38.934,52.91 h 5.159 v 5.16 h -5.159 z m -8.4,0 v 4.325 a 4.717,4.717 0 0 0 -3.855,-0.913 4.434,4.434 0 0 0 -1.3,0.5 V 52.91 Z M 19.876,69.02 a 2.555,2.555 0 0 1 3.063,2.5 v 10.05 a 1.069,1.069 0 1 0 2.137,0 V 71.523 l 0.01,-10.472 a 2.627,2.627 0 0 1 2.014,-2.635 2.555,2.555 0 0 1 3.089,2.5 v 20.656 a 1.068,1.068 0 1 0 2.136,0 V 60.913 a 2.553,2.553 0 0 1 3.064,-2.5 2.658,2.658 0 0 1 2.038,2.64 v 20.519 a 1.069,1.069 0 1 0 2.137,0 V 66.516 a 2.552,2.552 0 0 1 3.063,-2.5 2.655,2.655 0 0 1 2.037,2.638 v 26.122 a 1.069,1.069 0 0 0 1.9,0.677 L 52.737,85.9 a 2.552,2.552 0 1 1 3.934,3.251 l -9.2,12.453 c -2.9,4.279 -4.581,5.1 -4.579,5.1 a 1.068,1.068 0 0 0 -0.672,0.992 v 8.722 a 0.79,0.79 0 0 1 -0.789,0.789 H 23.512 a 0.787,0.787 0 0 1 -0.567,-0.237 0.777,0.777 0 0 1 -0.222,-0.566 l 0.026,-1.157 c 0.178,-7.791 0.1,-8.128 -0.371,-8.611 A 15.987,15.987 0 0 1 17.838,95.484 V 71.66 a 2.658,2.658 0 0 1 2.038,-2.64 z M 11.82,65.639 h 5.159 v 2.713 a 4.877,4.877 0 0 0 -1.2,2.446 H 11.82 Z" />
    <path
       style="fill:#3a2c60"
       inkscape:connector-curvature="0"
       id="path9863"
       d="m 118.2,52.5 a 1,1 0 0 0 -1,1 v 8.012 a 1,1 0 0 0 2,0 V 53.5 a 1,1 0 0 0 -1,-1 z" />
    <path
       style="fill:#3a2c60"
       inkscape:connector-curvature="0"
       id="path9865"
       d="m 25.758,46.342 v -7.16 a 1,1 0 0 0 -1,-1 H 17.6 a 1,1 0 0 0 -1,1 v 7.16 a 1,1 0 0 0 1,1 h 7.159 a 1,1 0 0 0 0.999,-1 z m -2,-1 H 18.6 v -5.16 h 5.159 z" />
    <path
       style="fill:#3a2c60"
       inkscape:connector-curvature="0"
       id="path9867"
       d="m 31.155,38.182 a 1,1 0 0 0 -1,1 v 7.16 a 1,1 0 0 0 1,1 h 7.159 a 1,1 0 0 0 1,-1 v -7.16 a 1,1 0 0 0 -1,-1 z m 6.159,7.16 h -5.159 v -5.16 h 5.159 z" />
    <path
       style="fill:#3a2c60"
       inkscape:connector-curvature="0"
       id="path9869"
       d="m 52.871,46.342 v -7.16 a 1,1 0 0 0 -1,-1 h -7.159 a 1,1 0 0 0 -1,1 v 7.16 a 1,1 0 0 0 1,1 h 7.159 a 1,1 0 0 0 1,-1 z m -2,-1 h -5.159 v -5.16 h 5.159 z" />
    <path
       style="fill:#3a2c60"
       inkscape:connector-curvature="0"
       id="path9871"
       d="m 66.428,46.342 v -7.16 a 1,1 0 0 0 -1,-1 h -7.159 a 1,1 0 0 0 -1,1 v 7.16 a 1,1 0 0 0 1,1 h 7.159 a 1,1 0 0 0 1,-1 z m -2,-1 h -5.159 v -5.16 h 5.159 z" />
    <path
       style="fill:#3a2c60"
       inkscape:connector-curvature="0"
       id="path9873"
       d="m 79.984,46.342 v -7.16 a 1,1 0 0 0 -1,-1 h -7.159 a 1,1 0 0 0 -1,1 v 7.16 a 1,1 0 0 0 1,1 h 7.159 a 1,1 0 0 0 1,-1 z m -2,-1 h -5.159 v -5.16 h 5.159 z" />
    <path
       style="fill:#3a2c60"
       inkscape:connector-curvature="0"
       id="path9875"
       d="m 85.382,38.182 a 1,1 0 0 0 -1,1 v 7.16 a 1,1 0 0 0 1,1 h 7.159 a 1,1 0 0 0 1,-1 v -7.16 a 1,1 0 0 0 -1,-1 z m 6.159,7.16 h -5.159 v -5.16 h 5.159 z" />
    <path
       style="fill:#3a2c60"
       inkscape:connector-curvature="0"
       id="path9877"
       d="m 107.1,46.342 v -7.16 a 1,1 0 0 0 -1,-1 h -7.162 a 1,1 0 0 0 -1,1 v 7.16 a 1,1 0 0 0 1,1 h 7.162 a 1,1 0 0 0 1,-1 z m -2,-1 h -5.162 v -5.16 h 5.162 z" />
    <path
       style="fill:#3a2c60"
       inkscape:connector-curvature="0"
       id="path9879"
       d="m 10.82,50.91 a 1,1 0 0 0 -1,1 v 7.16 a 1,1 0 0 0 1,1 h 7.159 a 1,1 0 0 0 1,-1 v -7.16 a 1,1 0 0 0 -1,-1 z m 6.159,7.16 H 11.82 v -5.16 h 5.159 z" />
    <path
       style="fill:#3a2c60"
       inkscape:connector-curvature="0"
       id="path9881"
       d="m 59.649,51.91 a 1,1 0 0 0 -1,-1 H 51.49 a 1,1 0 0 0 -1,1 v 7.16 a 1,1 0 0 0 1,1 h 7.159 a 1,1 0 0 0 1,-1 z m -2,6.16 H 52.49 v -5.16 h 5.159 z" />
    <path
       style="fill:#3a2c60"
       inkscape:connector-curvature="0"
       id="path9883"
       d="m 73.206,51.91 a 1,1 0 0 0 -1,-1 h -7.159 a 1,1 0 0 0 -1,1 v 7.16 a 1,1 0 0 0 1,1 h 7.159 a 1,1 0 0 0 1,-1 z m -2,6.16 h -5.159 v -5.16 h 5.159 z" />
    <path
       style="fill:#3a2c60"
       inkscape:connector-curvature="0"
       id="path9885"
       d="m 105.72,60.07 h 7.16 a 1,1 0 0 0 1,-1 v -7.16 a 1,1 0 0 0 -1,-1 h -7.16 a 1,1 0 0 0 -1,1 v 7.16 a 1,1 0 0 0 1,1 z m 1,-7.16 h 5.16 v 5.16 h -5.16 z" />
    <path
       style="fill:#3a2c60"
       inkscape:connector-curvature="0"
       id="path9887"
       d="m 51.49,72.8 h 7.159 a 1,1 0 0 0 1,-1 v -7.161 a 1,1 0 0 0 -1,-1 H 51.49 a 1,1 0 0 0 -1,1 V 71.8 a 1,1 0 0 0 1,1 z m 1,-7.159 h 5.159 V 70.8 H 52.49 Z" />
    <path
       style="fill:#3a2c60"
       inkscape:connector-curvature="0"
       id="path9889"
       d="m 65.047,72.8 h 7.159 a 1,1 0 0 0 1,-1 v -7.161 a 1,1 0 0 0 -1,-1 h -7.159 a 1,1 0 0 0 -1,1 V 71.8 a 1,1 0 0 0 1,1 z m 1,-7.159 h 5.159 V 70.8 h -5.159 z" />
  </g>
  <path
     style="opacity:0.95999995;fill:none;stroke:#000000;stroke-width:0.97931999;stroke-linecap:round;marker-end:url(#TriangleOutM)"
     inkscape:connector-curvature="0"
     id="path9893"
     d="m 15.676658,13.86601 13.076,0.12618" />
  <path
     sodipodi:nodetypes="cc"
     style="opacity:0.95999995;fill:none;stroke:#000000;stroke-width:0.97931999;stroke-linecap:round;marker-end:url(#TriangleOutM-2-3)"
     inkscape:connector-curvature="0"
     id="path9895"
     d="M 78.868968,14.18022 112.18466,7.53967" />
  <path
     style="display:none;opacity:0.95999995;fill:none;stroke:#000000;stroke-width:0.97931999;stroke-linecap:round;marker-end:url(#TriangleOutM-2-3-9)"
     inkscape:connector-curvature="0"
     id="path9897"
     display="none"
     d="m 83.982658,28.26867 30.130002,8.1433" />
  <g
     style="fill:#ff0000"
     id="g9905"
     transform="matrix(0.025838,0,0,0.025838,31.694181,29.400214)">
    <g
       style="fill:#ff0000"
       id="g9903">
      <g
         style="fill:#ff0000"
         id="g9901">
        <path
           style="fill:#ff0000"
           inkscape:connector-curvature="0"
           id="path9899"
           d="m 469.33,162.49 c 0,-33.469 -48.077,-52.865 -96.59,-55.526 -4.193,-31.451 -31.822,-85.634 -59.32,-85.634 -9.894,0 -21.455,2.302 -33.702,4.728 -13.997,2.781 -29.849,5.936 -45.054,5.936 -15.205,0 -31.057,-3.156 -45.055,-5.936 -12.248,-2.427 -23.808,-4.728 -33.702,-4.728 -27.498,0 -55.127,54.183 -59.32,85.634 -48.513,2.662 -96.59,22.058 -96.59,55.526 0,23.382 26.599,52.435 82.895,71.918 -0.004,0.128 -0.01,0.253 -0.014,0.38 -16.789,11.571 -18.893,31.15 -18.893,45.46 0,10.976 5.825,29.704 15.335,45.009 l -23.708,-5.08 c -4.166,-0.896 -8.478,0.771 -10.956,4.239 -2.479,3.468 -2.666,8.082 -0.479,11.737 l 63.989,106.65 c 1.937,3.229 5.416,5.197 9.186,5.197 h 234.62 c 3.77,0 7.249,-1.968 9.186,-5.197 l 63.989,-106.65 c 2.187,-3.656 2,-8.269 -0.479,-11.737 -2.479,-3.468 -6.79,-5.134 -10.956,-4.239 l -23.708,5.08 c 9.51,-15.306 15.335,-34.034 15.335,-45.009 0,-14.31 -2.104,-33.889 -18.913,-45.46 -0.003,-0.125 -0.01,-0.249 -0.013,-0.374 56.308,-19.482 82.912,-48.539 82.912,-71.924 z M 357.02,328.45 c -4.059,0 -7.669,2.346 -9.486,5.939 L 264.415,352.2 c -3.396,0.729 -6.229,3.052 -7.583,6.25 l -22.167,51.698 -22.166,-51.698 c -1.354,-3.198 -4.188,-5.521 -7.583,-6.25 l -83.118,-17.811 c -1.816,-3.592 -5.427,-5.939 -9.486,-5.939 -10.292,0 -26.938,-32.438 -26.938,-48.188 0,-20.635 6.125,-26.438 12.75,-29.625 3.708,-1.781 6.063,-5.531 6.063,-9.646 0,0 0.001,-0.033 0.001,-0.049 6.668,1.783 13.669,3.435 21.012,4.947 -4.835,5.607 -7.867,12.813 -7.867,20.78 v 10.667 c -0.001,23.531 19.145,42.666 42.666,42.666 h 10.667 c 29.416,0 53.333,-23.927 53.333,-53.333 v -8.875 c 1.023,-0.582 3.891,-1.682 10.04,-1.763 0.216,0 0.41,0.013 0.626,0.013 0.216,0 0.41,-0.013 0.626,-0.013 6.148,0.082 8.996,1.181 10.04,1.763 v 8.875 c 0,29.406 23.917,53.333 53.333,53.333 h 10.667 c 23.522,0 42.668,-19.135 42.668,-42.667 v -10.667 c 0,-7.967 -3.033,-15.173 -7.867,-20.78 7.335,-1.51 14.328,-3.161 20.991,-4.941 0,0.014 0.001,0.03 0.001,0.044 0,4.115 2.354,7.865 6.063,9.656 6.625,3.188 12.771,8.979 12.771,29.615 -0.001,15.75 -16.646,48.188 -26.938,48.188 z" />
      </g>
    </g>
  </g>
  <g
     id="g9943"
     transform="matrix(0.025838,0,0,0.025838,115.59266,30.46867)">
    <circle
       style="fill:#e6e5e5"
       id="circle9907"
       r="256"
       cy="256"
       cx="256" />
    <path
       style="fill:#232323"
       inkscape:connector-curvature="0"
       id="path9909"
       d="m 64,353.18 v -232.5 c 0,-4.128 3.528,-7.504 7.832,-7.504 h 368.33 c 4.304,0 7.832,3.376 7.832,7.504 v 232.5 H 64.004 Z" />
    <path
       style="fill:#636363"
       inkscape:connector-curvature="0"
       id="path9911"
       d="m 448,353.18 v 32 c 0,4.4 -3.528,8 -7.832,8 H 71.828 c -4.304,0 -7.832,-3.6 -7.832,-8 v -32 z" />
    <polygon
       style="fill:#aaaaaa"
       id="polygon9913"
       points="304,393.18 208,393.18 200,449.18 312,449.18 " />
    <g
       style="fill:#636363"
       id="g9919">
      <polygon
         id="polygon9915"
         points="304,393.18 208,393.18 203.02,428.08 305.86,406.22 " />
      <rect
         id="rect9917"
         height="8"
         width="168"
         y="449.20001"
         x="172" />
    </g>
    <polygon
       style="fill:#333333"
       id="polygon9921"
       points="304.54,396.96 205.51,410.62 208,393.18 304,393.18 " />
    <g
       style="fill:#e6e5e5"
       id="g9931">
      <circle
         id="circle9923"
         r="8"
         cy="145.2"
         cx="112" />
      <circle
         id="circle9925"
         r="8"
         cy="145.2"
         cx="176" />
      <circle
         id="circle9927"
         r="8"
         cy="145.2"
         cx="144" />
      <rect
         id="rect9929"
         height="8"
         width="208"
         y="141.17999"
         x="200" />
    </g>
    <rect
       style="fill:#4caf50"
       id="rect9933"
       height="43.695999"
       width="19.92"
       y="276.07001"
       x="181.3" />
    <rect
       style="fill:#2196f3"
       id="rect9935"
       height="68.671997"
       width="19.92"
       y="251.10001"
       x="213.67" />
    <rect
       style="fill:#4caf50"
       id="rect9937"
       height="96.720001"
       width="19.92"
       y="223.00999"
       x="246.03999" />
    <rect
       style="fill:#2196f3"
       id="rect9939"
       height="124.85"
       width="19.92"
       y="194.92"
       x="278.41" />
    <rect
       style="fill:#4caf50"
       id="rect9941"
       height="143.58"
       width="19.92"
       y="176.16"
       x="310.78" />
  </g>
  <g
     id="g9961"
     transform="matrix(0.60133,0,0,0.60133,114.99266,-0.60133)">
    <path
       style="fill:#607d8b"
       inkscape:connector-curvature="0"
       id="path9945"
       d="M 23.25,4.5 V 5.25 H 0.75 V 4.5 c 0,-1.55 1.26,-2.81 2.81,-2.81 h 16.88 c 1.55,0 2.81,1.26 2.81,2.81 z" />
    <path
       style="fill:#ffffff"
       inkscape:connector-curvature="0"
       id="path9947"
       d="m 23.25,5.25 v 15.87 c 0,0.62 -0.5,1.13 -1.12,1.13 H 1.87 c -0.62,0 -1.12,-0.51 -1.12,-1.13 V 5.25 Z" />
    <path
       style="fill:#2196f3"
       inkscape:connector-curvature="0"
       id="path9949"
       d="M 14.275,12.7 H 4.825 C 4.534,12.7 4.277,12.514 4.184,12.239 4.093,11.963 4.188,11.66 4.42,11.486 L 5.95,10.338 V 8.875 C 5.95,8.007 6.657,7.3 7.525,7.3 h 6.75 c 0.868,0 1.575,0.707 1.575,1.575 v 2.25 c 0,0.868 -0.707,1.575 -1.575,1.575 z" />
    <path
       style="fill:#4caf50"
       inkscape:connector-curvature="0"
       id="path9951"
       d="M 19.175,19.7 H 9.725 C 8.857,19.7 8.15,18.993 8.15,18.125 v -2.25 C 8.15,15.007 8.857,14.3 9.725,14.3 h 6.75 c 0.868,0 1.575,0.707 1.575,1.575 v 1.462 l 1.53,1.148 c 0.232,0.174 0.327,0.477 0.236,0.753 -0.093,0.276 -0.35,0.462 -0.641,0.462 z" />
    <path
       inkscape:connector-curvature="0"
       id="path9953"
       d="M 15.25,13 H 3.75 C 3.427,13 3.141,12.793 3.038,12.487 2.937,12.181 3.042,11.844 3.3,11.65 L 5,10.375 V 8.75 C 5,7.785 5.785,7 6.75,7 h 8.5 C 16.215,7 17,7.785 17,8.75 v 2.5 C 17,12.215 16.215,13 15.25,13 Z M 6,11.5 h 9.25 c 0.138,0 0.25,-0.112 0.25,-0.25 V 8.75 C 15.5,8.612 15.388,8.5 15.25,8.5 H 6.75 C 6.612,8.5 6.5,8.612 6.5,8.75 v 2 c 0,0.236 -0.111,0.458 -0.3,0.6 z" />
    <path
       inkscape:connector-curvature="0"
       id="path9955"
       d="M 20.25,20 H 8.75 C 7.785,20 7,19.215 7,18.25 v -2.5 C 7,14.785 7.785,14 8.75,14 h 8.5 c 0.965,0 1.75,0.785 1.75,1.75 v 1.625 l 1.7,1.275 c 0.258,0.193 0.363,0.53 0.262,0.837 C 20.859,19.793 20.573,20 20.25,20 Z M 8.75,15.5 c -0.138,0 -0.25,0.112 -0.25,0.25 v 2.5 c 0,0.138 0.112,0.25 0.25,0.25 H 18 l -0.2,-0.15 c -0.188,-0.142 -0.3,-0.363 -0.3,-0.6 v -2 c 0,-0.138 -0.112,-0.25 -0.25,-0.25 z" />
    <path
       inkscape:connector-curvature="0"
       id="path9957"
       d="M 21.25,23 H 2.75 C 1.233,23 0,21.767 0,20.25 V 3.75 C 0,2.233 1.233,1 2.75,1 h 18.5 C 22.767,1 24,2.233 24,3.75 v 16.5 C 24,21.767 22.767,23 21.25,23 Z M 2.75,2.5 C 2.061,2.5 1.5,3.061 1.5,3.75 v 16.5 c 0,0.689 0.561,1.25 1.25,1.25 h 18.5 c 0.689,0 1.25,-0.561 1.25,-1.25 V 3.75 C 22.5,3.061 21.939,2.5 21.25,2.5 Z" />
    <path
       inkscape:connector-curvature="0"
       id="path9959"
       d="M 23.25,6 H 0.75 C 0.336,6 0,5.664 0,5.25 0,4.836 0.336,4.5 0.75,4.5 h 22.5 C 23.664,4.5 24,4.836 24,5.25 24,5.664 23.664,6 23.25,6 Z" />
  </g>
  <path
     sodipodi:nodetypes="cc"
     style="opacity:0.95999995;fill:none;stroke:#000000;stroke-width:0.97931999;stroke-linecap:round;marker-end:url(#marker18821)"
     inkscape:connector-curvature="0"
     id="path9963"
     d="M 78.868968,14.18022 112.45166,37.00567" />
  <text
     id="text9967"
     xml:space="preserve"
     style="font-size:10.58300018px;line-height:1.25;font-family:sans-serif;letter-spacing:0px;word-spacing:0px;fill:#000000;stroke-width:0.26458001"
     word-spacing="0px"
     letter-spacing="0px"
     font-size="10.583px"
     y="40.892071"
     x="48.570286"><tspan
       style="stroke-width:0.26458001"
       id="tspan9965"
       y="50.25584"
       x="48.570286" /></text>
  <g
     id="g10059"
     transform="matrix(0.01378,0,0,0.01378,71.79959,27.334982)">
    <path
       style="fill:#9bc9ff"
       inkscape:connector-curvature="0"
       id="path9969"
       d="m 104,104 c -17.672,0 -32,14.328 -32,32 v 304 c 0,17.672 -14.328,32 -32,32 h 384 c 26.508,0 48,-21.492 48,-48 V 104 Z m 320,304 c -0.0273,8.8242 -7.1758,15.973 -16,16 h -96 c -8.8242,-0.0273 -15.973,-7.1758 -16,-16 v -96 c 0.0273,-8.8242 7.1758,-15.973 16,-16 h 8 v -24 c 0,-22.09 17.91,-40 40,-40 22.09,0 40,17.91 40,40 v 24 h 8 c 8.8242,0.0273 15.973,7.1758 16,16 z" />
    <path
       style="fill:#9bc9ff"
       inkscape:connector-curvature="0"
       id="path9971"
       d="M 440,40 H 120 L 72,8 H 24 C 15.1641,8 8,15.1641 8,24 v 416 c 0,17.672 14.328,32 32,32 17.672,0 32,-14.328 32,-32 V 136 c 0,-17.672 14.328,-32 32,-32 H 472 V 72 C 472,54.328 457.672,40 440,40 Z" />
    <path
       style="fill:#9bc9ff"
       inkscape:connector-curvature="0"
       id="path9973"
       d="m 400,272 c 0,-22.09 -17.91,-40 -40,-40 -22.09,0 -40,17.91 -40,40 v 24 h 80 z" />
    <path
       style="fill:#9bc9ff"
       inkscape:connector-curvature="0"
       id="path9975"
       d="m 176,168 c 0,8.8359 -7.1641,16 -16,16 -8.8359,0 -16,-7.1641 -16,-16 0,-8.8359 7.1641,-16 16,-16 8.8359,0 16,7.1641 16,16 z" />
    <path
       style="fill:#9bc9ff"
       inkscape:connector-curvature="0"
       id="path9977"
       d="m 256,168 c 0,8.8359 -7.1641,16 -16,16 -8.8359,0 -16,-7.1641 -16,-16 0,-8.8359 7.1641,-16 16,-16 8.8359,0 16,7.1641 16,16 z" />
    <path
       style="fill:#9bc9ff"
       inkscape:connector-curvature="0"
       id="path9979"
       d="m 312,168 c 0,8.8359 -7.1641,16 -16,16 -8.8359,0 -16,-7.1641 -16,-16 0,-8.8359 7.1641,-16 16,-16 8.8359,0 16,7.1641 16,16 z" />
    <path
       style="fill:#9bc9ff"
       inkscape:connector-curvature="0"
       id="path9981"
       d="m 208,224 c 0,8.8359 -7.1641,16 -16,16 -8.8359,0 -16,-7.1641 -16,-16 0,-8.8359 7.1641,-16 16,-16 8.8359,0 16,7.1641 16,16 z" />
    <path
       style="fill:#9bc9ff"
       inkscape:connector-curvature="0"
       id="path9983"
       d="m 152,224 c 0,8.8359 -7.1641,16 -16,16 -8.8359,0 -16,-7.1641 -16,-16 0,-8.8359 7.1641,-16 16,-16 8.8359,0 16,7.1641 16,16 z" />
    <path
       style="fill:#9bc9ff"
       inkscape:connector-curvature="0"
       id="path9985"
       d="m 200,280 c 0,8.8359 -7.1641,16 -16,16 -8.8359,0 -16,-7.1641 -16,-16 0,-8.8359 7.1641,-16 16,-16 8.8359,0 16,7.1641 16,16 z" />
    <path
       style="fill:#9bc9ff"
       inkscape:connector-curvature="0"
       id="path9987"
       d="m 280,280 c 0,8.8359 -7.1641,16 -16,16 -8.8359,0 -16,-7.1641 -16,-16 0,-8.8359 7.1641,-16 16,-16 8.8359,0 16,7.1641 16,16 z" />
    <path
       style="fill:#9bc9ff"
       inkscape:connector-curvature="0"
       id="path9989"
       d="m 264,224 c 0,8.8359 -7.1641,16 -16,16 -8.8359,0 -16,-7.1641 -16,-16 0,-8.8359 7.1641,-16 16,-16 8.8359,0 16,7.1641 16,16 z" />
    <path
       style="fill:#9bc9ff"
       inkscape:connector-curvature="0"
       id="path9991"
       d="m 208,392 c 0,8.8359 -7.1641,16 -16,16 -8.8359,0 -16,-7.1641 -16,-16 0,-8.8359 7.1641,-16 16,-16 8.8359,0 16,7.1641 16,16 z" />
    <path
       style="fill:#9bc9ff"
       inkscape:connector-curvature="0"
       id="path9993"
       d="m 152,392 c 0,8.8359 -7.1641,16 -16,16 -8.8359,0 -16,-7.1641 -16,-16 0,-8.8359 7.1641,-16 16,-16 8.8359,0 16,7.1641 16,16 z" />
    <path
       style="fill:#9bc9ff"
       inkscape:connector-curvature="0"
       id="path9995"
       d="m 264,392 c 0,8.8359 -7.1641,16 -16,16 -8.8359,0 -16,-7.1641 -16,-16 0,-8.8359 7.1641,-16 16,-16 8.8359,0 16,7.1641 16,16 z" />
    <path
       style="fill:#9bc9ff"
       inkscape:connector-curvature="0"
       id="path9997"
       d="m 232,336 c 0,8.8359 -7.1641,16 -16,16 -8.8359,0 -16,-7.1641 -16,-16 0,-8.8359 7.1641,-16 16,-16 8.8359,0 16,7.1641 16,16 z" />
    <path
       style="fill:#9bc9ff"
       inkscape:connector-curvature="0"
       id="path9999"
       d="m 176,336 c 0,8.8359 -7.1641,16 -16,16 -8.8359,0 -16,-7.1641 -16,-16 0,-8.8359 7.1641,-16 16,-16 8.8359,0 16,7.1641 16,16 z" />
    <g
       style="fill:#1e81ce"
       id="g10057">
      <path
         inkscape:connector-curvature="0"
         id="path10001"
         d="m 432,64 h 16 v 16 h -16 z" />
      <path
         inkscape:connector-curvature="0"
         id="path10003"
         d="m 32,424 h 16 v 16 H 32 Z" />
      <path
         inkscape:connector-curvature="0"
         id="path10005"
         d="M 440,32 H 122.4 L 74.4,0 H 24.002 c -13.254,0 -24,10.746 -24,24 v 416 c 0.027344,22.082 17.918,39.973 40,40 h 384 c 30.914,-0.0352 55.965,-25.086 56,-56 V 72 c -0.0273,-22.082 -17.918,-39.973 -40,-40 z m 24,392 c -0.0273,22.082 -17.918,39.973 -40,40 H 72 c 5.2031,-6.918 8.0117,-15.344 8,-24 V 136 c 0,-13.254 10.746,-24 24,-24 H 464 Z M 464,96 H 104 c -22.082,0.02734 -39.973,17.918 -40,40 v 304 c 0,13.254 -10.746,24 -24,24 -13.254,0 -24,-10.746 -24,-24 V 24 c 0,-4.418 3.582,-8 8,-8 h 45.602 l 48,32 h 322.4 c 13.254,0 24,10.746 24,24 z" />
      <path
         inkscape:connector-curvature="0"
         id="path10007"
         d="M 32,104 V 408 H 48 V 104 C 48,90.746 58.746,80 72,80 H 416 V 64 H 72 C 49.918,64.02734 32.027,81.918 32,104 Z" />
      <path
         inkscape:connector-curvature="0"
         id="path10009"
         d="m 312,288 c -13.254,0 -24,10.746 -24,24 v 96 c 0,13.254 10.746,24 24,24 h 96 c 13.254,0 24,-10.746 24,-24 v -96 c 0,-13.254 -10.746,-24 -24,-24 v -16 c 0,-26.508 -21.492,-48 -48,-48 -26.508,0 -48,21.492 -48,48 z m 104,24 v 8 h -16 v 16 h 16 v 16 h -16 v 16 h 16 v 16 h -16 v 16 h 16 v 8 c 0,4.418 -3.582,8 -8,8 h -96 c -4.418,0 -8,-3.582 -8,-8 v -8 h 16 v -16 h -16 v -16 h 16 v -16 h -16 v -16 h 16 v -16 h -16 v -8 c 0,-4.418 3.582,-8 8,-8 h 96 c 4.418,0 8,3.582 8,8 z m -88,-40 c 0,-17.672 14.328,-32 32,-32 17.672,0 32,14.328 32,32 v 16 h -64 z" />
      <path
         inkscape:connector-curvature="0"
         id="path10011"
         d="m 352,366.53 v 33.473 h 16 V 366.53 c 11.02,-3.8945 17.633,-15.164 15.656,-26.684 -1.9766,-11.523 -11.969,-19.941 -23.656,-19.941 -11.687,0 -21.68,8.418 -23.656,19.941 -1.9766,11.52 4.6367,22.789 15.656,26.684 z m 8,-30.527 c 4.418,0 8,3.582 8,8 0,4.418 -3.582,8 -8,8 -4.418,0 -8,-3.582 -8,-8 0,-4.418 3.582,-8 8,-8 z" />
      <path
         inkscape:connector-curvature="0"
         id="path10013"
         d="m 112,144 h 16 v 48 h -16 z" />
      <path
         inkscape:connector-curvature="0"
         id="path10015"
         d="m 160,192 c 13.254,0 24,-10.746 24,-24 0,-13.254 -10.746,-24 -24,-24 -13.254,0 -24,10.746 -24,24 0,13.254 10.746,24 24,24 z m 0,-32 c 4.418,0 8,3.582 8,8 0,4.418 -3.582,8 -8,8 -4.418,0 -8,-3.582 -8,-8 0,-4.418 3.582,-8 8,-8 z" />
      <path
         inkscape:connector-curvature="0"
         id="path10017"
         d="m 192,144 h 16 v 48 h -16 z" />
      <path
         inkscape:connector-curvature="0"
         id="path10019"
         d="m 240,192 c 13.254,0 24,-10.746 24,-24 0,-13.254 -10.746,-24 -24,-24 -13.254,0 -24,10.746 -24,24 0,13.254 10.746,24 24,24 z m 0,-32 c 4.418,0 8,3.582 8,8 0,4.418 -3.582,8 -8,8 -4.418,0 -8,-3.582 -8,-8 0,-4.418 3.582,-8 8,-8 z" />
      <path
         inkscape:connector-curvature="0"
         id="path10021"
         d="m 296,192 c 13.254,0 24,-10.746 24,-24 0,-13.254 -10.746,-24 -24,-24 -13.254,0 -24,10.746 -24,24 0,13.254 10.746,24 24,24 z m 0,-32 c 4.418,0 8,3.582 8,8 0,4.418 -3.582,8 -8,8 -4.418,0 -8,-3.582 -8,-8 0,-4.418 3.582,-8 8,-8 z" />
      <path
         inkscape:connector-curvature="0"
         id="path10023"
         d="m 168,224 c 0,13.254 10.746,24 24,24 13.254,0 24,-10.746 24,-24 0,-13.254 -10.746,-24 -24,-24 -13.254,0 -24,10.746 -24,24 z m 24,-8 c 4.418,0 8,3.582 8,8 0,4.418 -3.582,8 -8,8 -4.418,0 -8,-3.582 -8,-8 0,-4.418 3.582,-8 8,-8 z" />
      <path
         inkscape:connector-curvature="0"
         id="path10025"
         d="m 136,248 c 13.254,0 24,-10.746 24,-24 0,-13.254 -10.746,-24 -24,-24 -13.254,0 -24,10.746 -24,24 0,13.254 10.746,24 24,24 z m 0,-32 c 4.418,0 8,3.582 8,8 0,4.418 -3.582,8 -8,8 -4.418,0 -8,-3.582 -8,-8 0,-4.418 3.582,-8 8,-8 z" />
      <path
         inkscape:connector-curvature="0"
         id="path10027"
         d="m 208,280 c 0,-13.254 -10.746,-24 -24,-24 -13.254,0 -24,10.746 -24,24 0,13.254 10.746,24 24,24 13.254,0 24,-10.746 24,-24 z m -32,0 c 0,-4.418 3.582,-8 8,-8 4.418,0 8,3.582 8,8 0,4.418 -3.582,8 -8,8 -4.418,0 -8,-3.582 -8,-8 z" />
      <path
         inkscape:connector-curvature="0"
         id="path10029"
         d="m 264,256 c -13.254,0 -24,10.746 -24,24 0,13.254 10.746,24 24,24 13.254,0 24,-10.746 24,-24 0,-13.254 -10.746,-24 -24,-24 z m 0,32 c -4.418,0 -8,-3.582 -8,-8 0,-4.418 3.582,-8 8,-8 4.418,0 8,3.582 8,8 0,4.418 -3.582,8 -8,8 z" />
      <path
         inkscape:connector-curvature="0"
         id="path10031"
         d="m 280,200 h 16 v 48 h -16 z" />
      <path
         inkscape:connector-curvature="0"
         id="path10033"
         d="m 328,144 h 16 v 48 h -16 z" />
      <path
         inkscape:connector-curvature="0"
         id="path10035"
         d="m 216,256 h 16 v 48 h -16 z" />
      <path
         inkscape:connector-curvature="0"
         id="path10037"
         d="m 248,312 h 16 v 48 h -16 z" />
      <path
         inkscape:connector-curvature="0"
         id="path10039"
         d="m 112,256 h 16 v 48 h -16 z" />
      <path
         inkscape:connector-curvature="0"
         id="path10041"
         d="m 136,256 h 16 v 48 h -16 z" />
      <path
         inkscape:connector-curvature="0"
         id="path10043"
         d="m 112,312 h 16 v 48 h -16 z" />
      <path
         inkscape:connector-curvature="0"
         id="path10045"
         d="m 224,224 c 0,13.254 10.746,24 24,24 13.254,0 24,-10.746 24,-24 0,-13.254 -10.746,-24 -24,-24 -13.254,0 -24,10.746 -24,24 z m 32,0 c 0,4.418 -3.582,8 -8,8 -4.418,0 -8,-3.582 -8,-8 0,-4.418 3.582,-8 8,-8 4.418,0 8,3.582 8,8 z" />
      <path
         inkscape:connector-curvature="0"
         id="path10047"
         d="m 192,368 c -13.254,0 -24,10.746 -24,24 0,13.254 10.746,24 24,24 13.254,0 24,-10.746 24,-24 0,-13.254 -10.746,-24 -24,-24 z m 0,32 c -4.418,0 -8,-3.582 -8,-8 0,-4.418 3.582,-8 8,-8 4.418,0 8,3.582 8,8 0,4.418 -3.582,8 -8,8 z" />
      <path
         inkscape:connector-curvature="0"
         id="path10049"
         d="m 136,416 c 13.254,0 24,-10.746 24,-24 0,-13.254 -10.746,-24 -24,-24 -13.254,0 -24,10.746 -24,24 0,13.254 10.746,24 24,24 z m 0,-32 c 4.418,0 8,3.582 8,8 0,4.418 -3.582,8 -8,8 -4.418,0 -8,-3.582 -8,-8 0,-4.418 3.582,-8 8,-8 z" />
      <path
         inkscape:connector-curvature="0"
         id="path10051"
         d="m 248,368 c -13.254,0 -24,10.746 -24,24 0,13.254 10.746,24 24,24 13.254,0 24,-10.746 24,-24 0,-13.254 -10.746,-24 -24,-24 z m 0,32 c -4.418,0 -8,-3.582 -8,-8 0,-4.418 3.582,-8 8,-8 4.418,0 8,3.582 8,8 0,4.418 -3.582,8 -8,8 z" />
      <path
         inkscape:connector-curvature="0"
         id="path10053"
         d="m 240,336 c 0,-13.254 -10.746,-24 -24,-24 -13.254,0 -24,10.746 -24,24 0,13.254 10.746,24 24,24 13.254,0 24,-10.746 24,-24 z m -24,8 c -4.418,0 -8,-3.582 -8,-8 0,-4.418 3.582,-8 8,-8 4.418,0 8,3.582 8,8 0,4.418 -3.582,8 -8,8 z" />
      <path
         inkscape:connector-curvature="0"
         id="path10055"
         d="m 160,360 c 13.254,0 24,-10.746 24,-24 0,-13.254 -10.746,-24 -24,-24 -13.254,0 -24,10.746 -24,24 0,13.254 10.746,24 24,24 z m 0,-32 c 4.418,0 8,3.582 8,8 0,4.418 -3.582,8 -8,8 -4.418,0 -8,-3.582 -8,-8 0,-4.418 3.582,-8 8,-8 z" />
    </g>
  </g>
  <g
     id="g10093"
     transform="matrix(0.018048,0,0,0.018048,115.87266,13.68867)">
    <path
       inkscape:connector-curvature="0"
       id="path10075"
       d="m 203,88.887 c 0,-15.465 -12.535,-28 -28,-28 H 28 c -15.465,0 -28,12.535 -28,28 v 147 c 0,15.461 12.535,28 28,28 h 147 c 15.465,0 28,-12.539 28,-28 z m -16,147 c 0,6.625 -5.3711,12 -12,12 H 28 c -6.6289,0 -12,-5.375 -12,-12 v -147 c 0,-6.6289 5.3711,-12 12,-12 h 147 c 6.6289,0 12,5.3711 12,12 z" />
    <path
       inkscape:connector-curvature="0"
       id="path10077"
       d="m 101.63,189.2 c 14.957,0 27.086,-12.125 27.086,-27.086 0,-14.961 -12.129,-27.086 -27.086,-27.086 -14.961,0 -27.086,12.125 -27.086,27.086 0.01563,14.953 12.133,27.07 27.086,27.086 z m 0,-38.172 c 6.1211,0 11.086,4.9648 11.086,11.086 0,6.125 -4.9648,11.086 -11.09,11.086 -6.1211,0 -11.086,-4.9648 -11.082,-11.086 0.0078,-6.1172 4.9648,-11.078 11.086,-11.086 z" />
    <path
       inkscape:connector-curvature="0"
       id="path10079"
       d="m 50.734,138.3 c 14.961,0 27.086,-12.129 27.086,-27.086 0,-14.961 -12.125,-27.086 -27.086,-27.086 -14.957,0 -27.086,12.125 -27.086,27.086 0.01953,14.953 12.137,27.07 27.086,27.086 z m 0,-38.172 c 6.125,0 11.086,4.9648 11.086,11.086 0,6.125 -4.9609,11.086 -11.086,11.086 -6.1211,0 -11.086,-4.9648 -11.086,-11.086 0.01172,-6.1211 4.9688,-11.078 11.086,-11.086 z" />
    <path
       inkscape:connector-curvature="0"
       id="path10081"
       d="m 152.53,240.09 c 14.957,0 27.082,-12.129 27.082,-27.086 0,-14.957 -12.125,-27.086 -27.086,-27.086 -14.957,0 -27.082,12.129 -27.082,27.086 0.0156,14.953 12.133,27.07 27.086,27.086 z m 0,-38.172 c 6.1211,0.004 11.082,4.9648 11.082,11.086 0,6.125 -4.9609,11.086 -11.086,11.086 -6.1211,0 -11.082,-4.9648 -11.082,-11.086 0.008,-6.1172 4.9648,-11.078 11.086,-11.086 z" />
    <path
       inkscape:connector-curvature="0"
       id="path10083"
       d="M 408.41,14.309 C 400.8358,0.832 383.785,-3.968 370.293,3.579 l -128.5,72.043 c -13.473,7.5742 -18.273,24.625 -10.73,38.117 l 72.043,128.5 c 3.6172,6.4922 9.6797,11.266 16.836,13.258 2.4844,0.70313 5.0508,1.0586 7.6289,1.0625 4.7852,-0.004 9.4844,-1.2422 13.652,-3.5898 l 128.5,-72.047 c 13.488,-7.5625 18.293,-24.625 10.73,-38.113 z m 59.172,145.45 c -0.85546,3.0664 -2.9023,5.6641 -5.6836,7.2148 l -128.5,72.043 c -5.7812,3.2422 -13.094,1.1797 -16.336,-4.6016 l -72.043,-128.5 c -3.2344,-5.7812 -1.1758,-13.09 4.5977,-16.336 l 128.5,-72.043 c 5.7852,-3.2344 13.094,-1.1758 16.336,4.6016 l 72.047,128.5 c 1.5625,2.7734 1.9531,6.0547 1.082,9.1211 z" />
    <path
       inkscape:connector-curvature="0"
       id="path10085"
       d="M 310.1,95.523 C 303.7797,84.25 290.377,79.011 278.088,83.011 c -12.289,4 -20.039,16.121 -18.516,28.953 1.5234,12.832 11.902,22.801 24.785,23.809 12.883,1.0078 24.684,-7.2266 28.188,-19.664 1.9688,-6.9141 1.0859,-14.328 -2.4453,-20.586 z m -18.203,22.914 c -5.3398,2.9961 -12.094,1.0938 -15.09,-4.2461 -2.9922,-5.3398 -1.0898,-12.098 4.25,-15.09 5.3398,-2.9961 12.094,-1.0938 15.09,4.2461 2.9844,5.3438 1.0781,12.094 -4.2578,15.09 z" />
    <path
       inkscape:connector-curvature="0"
       id="path10087"
       d="m 448.66,134.54 c -7.3164,-13.043 -23.816,-17.684 -36.859,-10.371 -13.043,7.313 -17.688,23.816 -10.375,36.859 7.313,13.043 23.809,17.691 36.855,10.383 6.3047,-3.4766 10.949,-9.3359 12.902,-16.266 1.9492,-6.9297 1.043,-14.352 -2.5234,-20.605 z m -18.199,22.914 c -5.3398,2.9922 -12.094,1.0898 -15.09,-4.25 -2.9922,-5.3398 -1.0898,-12.094 4.25,-15.086 5.3398,-2.9961 12.094,-1.0938 15.09,4.2461 2.9844,5.3398 1.082,12.09 -4.2539,15.09 z" />
    <path
       inkscape:connector-curvature="0"
       id="path10089"
       d="m 398.88,45.746 c -5.9961,-10.691 -18.422,-16.027 -30.305,-13.004 -11.879,3.0234 -20.246,13.648 -20.402,25.906 -0.15234,12.258 7.9414,23.094 19.742,26.414 2.4023,0.67969 4.8867,1.0234 7.3828,1.0234 9.6055,-0.02734 18.48,-5.1328 23.332,-13.426 4.8477,-8.293 4.9453,-18.535 0.25391,-26.918 z M 380.677,68.66 c -5.3398,2.9922 -12.098,1.0898 -15.09,-4.25 -2.9922,-5.3398 -1.0898,-12.094 4.25,-15.086 5.3398,-2.9961 12.094,-1.0938 15.086,4.2461 2.9844,5.3398 1.0859,12.09 -4.2461,15.09 z" />
    <path
       inkscape:connector-curvature="0"
       id="path10091"
       d="m 323,173.93 c -9.5586,5.3594 -14.945,15.945 -13.656,26.824 1.293,10.879 9.0117,19.906 19.555,22.879 2.4023,0.67578 4.8867,1.0234 7.3828,1.0234 11.34,-0.0156 21.473,-7.0938 25.387,-17.738 3.914,-10.6442 0.78125,-22.602 -7.8438,-29.961 -8.6289,-7.3633 -20.93,-8.5703 -30.824,-3.0273 z m 18.664,33.301 c -5.3398,2.9922 -12.094,1.0898 -15.086,-4.25 -2.9961,-5.3398 -1.0938,-12.094 4.2461,-15.09 5.3398,-2.9922 12.098,-1.0898 15.09,4.25 1.4531,2.5586 1.8242,5.5938 1.0274,8.4297 -0.80078,2.832 -2.6992,5.2305 -5.2734,6.6562 z" />
  </g>
  <g
     id="g10113"
     transform="matrix(-0.017433,-0.0046712,0.0046712,-0.017433,124.52266,49.97867)">
    <path
       inkscape:connector-curvature="0"
       id="path10095"
       d="m 203,88.887 c 0,-15.465 -12.535,-28 -28,-28 H 28 c -15.465,0 -28,12.535 -28,28 v 147 c 0,15.461 12.535,28 28,28 h 147 c 15.465,0 28,-12.539 28,-28 z m -16,147 c 0,6.625 -5.3711,12 -12,12 H 28 c -6.6289,0 -12,-5.375 -12,-12 v -147 c 0,-6.6289 5.3711,-12 12,-12 h 147 c 6.6289,0 12,5.3711 12,12 z" />
    <path
       inkscape:connector-curvature="0"
       id="path10097"
       d="m 101.63,189.2 c 14.957,0 27.086,-12.125 27.086,-27.086 0,-14.961 -12.129,-27.086 -27.086,-27.086 -14.961,0 -27.086,12.125 -27.086,27.086 0.01563,14.953 12.133,27.07 27.086,27.086 z m 0,-38.172 c 6.1211,0 11.086,4.9648 11.086,11.086 0,6.125 -4.9648,11.086 -11.09,11.086 -6.1211,0 -11.086,-4.9648 -11.082,-11.086 0.0078,-6.1172 4.9648,-11.078 11.086,-11.086 z" />
    <path
       inkscape:connector-curvature="0"
       id="path10099"
       d="m 50.734,138.3 c 14.961,0 27.086,-12.129 27.086,-27.086 0,-14.961 -12.125,-27.086 -27.086,-27.086 -14.957,0 -27.086,12.125 -27.086,27.086 0.01953,14.953 12.137,27.07 27.086,27.086 z m 0,-38.172 c 6.125,0 11.086,4.9648 11.086,11.086 0,6.125 -4.9609,11.086 -11.086,11.086 -6.1211,0 -11.086,-4.9648 -11.086,-11.086 0.01172,-6.1211 4.9688,-11.078 11.086,-11.086 z" />
    <path
       inkscape:connector-curvature="0"
       id="path10101"
       d="m 152.53,240.09 c 14.957,0 27.082,-12.129 27.082,-27.086 0,-14.957 -12.125,-27.086 -27.086,-27.086 -14.957,0 -27.082,12.129 -27.082,27.086 0.0156,14.953 12.133,27.07 27.086,27.086 z m 0,-38.172 c 6.1211,0.004 11.082,4.9648 11.082,11.086 0,6.125 -4.9609,11.086 -11.086,11.086 -6.1211,0 -11.082,-4.9648 -11.082,-11.086 0.008,-6.1172 4.9648,-11.078 11.086,-11.086 z" />
    <path
       inkscape:connector-curvature="0"
       id="path10103"
       d="M 408.41,14.309 C 400.8358,0.832 383.785,-3.968 370.293,3.579 l -128.5,72.043 c -13.473,7.5742 -18.273,24.625 -10.73,38.117 l 72.043,128.5 c 3.6172,6.4922 9.6797,11.266 16.836,13.258 2.4844,0.70313 5.0508,1.0586 7.6289,1.0625 4.7852,-0.004 9.4844,-1.2422 13.652,-3.5898 l 128.5,-72.047 c 13.488,-7.5625 18.293,-24.625 10.73,-38.113 z m 59.172,145.45 c -0.85546,3.0664 -2.9023,5.6641 -5.6836,7.2148 l -128.5,72.043 c -5.7812,3.2422 -13.094,1.1797 -16.336,-4.6016 l -72.043,-128.5 c -3.2344,-5.7812 -1.1758,-13.09 4.5977,-16.336 l 128.5,-72.043 c 5.7852,-3.2344 13.094,-1.1758 16.336,4.6016 l 72.047,128.5 c 1.5625,2.7734 1.9531,6.0547 1.082,9.1211 z" />
    <path
       inkscape:connector-curvature="0"
       id="path10105"
       d="M 310.1,95.523 C 303.7797,84.25 290.377,79.011 278.088,83.011 c -12.289,4 -20.039,16.121 -18.516,28.953 1.5234,12.832 11.902,22.801 24.785,23.809 12.883,1.0078 24.684,-7.2266 28.188,-19.664 1.9688,-6.9141 1.0859,-14.328 -2.4453,-20.586 z m -18.203,22.914 c -5.3398,2.9961 -12.094,1.0938 -15.09,-4.2461 -2.9922,-5.3398 -1.0898,-12.098 4.25,-15.09 5.3398,-2.9961 12.094,-1.0938 15.09,4.2461 2.9844,5.3438 1.0781,12.094 -4.2578,15.09 z" />
    <path
       inkscape:connector-curvature="0"
       id="path10107"
       d="m 448.66,134.54 c -7.3164,-13.043 -23.816,-17.684 -36.859,-10.371 -13.043,7.313 -17.688,23.816 -10.375,36.859 7.313,13.043 23.809,17.691 36.855,10.383 6.3047,-3.4766 10.949,-9.3359 12.902,-16.266 1.9492,-6.9297 1.043,-14.352 -2.5234,-20.605 z m -18.199,22.914 c -5.3398,2.9922 -12.094,1.0898 -15.09,-4.25 -2.9922,-5.3398 -1.0898,-12.094 4.25,-15.086 5.3398,-2.9961 12.094,-1.0938 15.09,4.2461 2.9844,5.3398 1.082,12.09 -4.2539,15.09 z" />
    <path
       inkscape:connector-curvature="0"
       id="path10109"
       d="m 398.88,45.746 c -5.9961,-10.691 -18.422,-16.027 -30.305,-13.004 -11.879,3.0234 -20.246,13.648 -20.402,25.906 -0.15234,12.258 7.9414,23.094 19.742,26.414 2.4023,0.67969 4.8867,1.0234 7.3828,1.0234 9.6055,-0.02734 18.48,-5.1328 23.332,-13.426 4.8477,-8.293 4.9453,-18.535 0.25391,-26.918 z M 380.677,68.66 c -5.3398,2.9922 -12.098,1.0898 -15.09,-4.25 -2.9922,-5.3398 -1.0898,-12.094 4.25,-15.086 5.3398,-2.9961 12.094,-1.0938 15.086,4.2461 2.9844,5.3398 1.0859,12.09 -4.2461,15.09 z" />
    <path
       inkscape:connector-curvature="0"
       id="path10111"
       d="m 323,173.93 c -9.5586,5.3594 -14.945,15.945 -13.656,26.824 1.293,10.879 9.0117,19.906 19.555,22.879 2.4023,0.67578 4.8867,1.0234 7.3828,1.0234 11.34,-0.0156 21.473,-7.0938 25.387,-17.738 3.914,-10.6442 0.78125,-22.602 -7.8438,-29.961 -8.6289,-7.3633 -20.93,-8.5703 -30.824,-3.0273 z m 18.664,33.301 c -5.3398,2.9922 -12.094,1.0898 -15.086,-4.25 -2.9961,-5.3398 -1.0938,-12.094 4.2461,-15.09 5.3398,-2.9922 12.098,-1.0898 15.09,4.25 1.4531,2.5586 1.8242,5.5938 1.0274,8.4297 -0.80078,2.832 -2.6992,5.2305 -5.2734,6.6562 z" />
  </g>
  <path
     style="opacity:0.95999995;fill:none;stroke:#000000;stroke-width:0.97931999;stroke-linecap:round;marker-end:url(#TriangleOutM-4)"
     inkscape:connector-curvature="0"
     id="path10115"
     d="m 46.411658,13.86601 13.076,0.12618" />
  <path
     style="fill:#ff0000;stroke:#ff0000;stroke-width:1.00010002;marker-end:url(#TriangleOutM-4-3-8)"
     inkscape:connector-curvature="0"
     id="path10119"
     d="M 37.570492,29.01232 V 23.715938"
     sodipodi:nodetypes="cc" />
  <g
     transform="matrix(0.02823393,0,0,0.02823393,71.20343,30.492952)"
     id="g11562">
    <path
       inkscape:connector-curvature="0"
       style="fill:#ebebec"
       d="M 506.843,340.341 H 5.157 C 2.309,340.341 0,338.032 0,335.184 V 176.818 c 0,-2.848 2.309,-5.157 5.157,-5.157 h 501.687 c 2.848,0 5.157,2.309 5.157,5.157 v 158.367 c -10e-4,2.847 -2.31,5.156 -5.158,5.156 z"
       id="path11486" />
    <path
       inkscape:connector-curvature="0"
       style="fill:#d7d8d9"
       d="m 506.843,340.341 h -48.909 v -168.68 h 48.909 c 2.848,0 5.157,2.309 5.157,5.157 v 158.367 c 0,2.847 -2.309,5.156 -5.157,5.156 z"
       id="path11488" />
    <g
       id="g11500">
      <path
         inkscape:connector-curvature="0"
         style="fill:#57565c"
         d="m 468.682,302.273 c 4.147,0 7.508,-3.361 7.508,-7.508 0,-4.147 -3.361,-7.508 -7.508,-7.508 h -69.07 c -4.147,0 -7.508,3.361 -7.508,7.508 0,4.147 3.361,7.508 7.508,7.508 z"
         id="path11490" />
      <path
         inkscape:connector-curvature="0"
         style="fill:#57565c"
         d="m 107.262,233.24 c -2.244,-3.486 -6.888,-4.497 -10.376,-2.25 l -17.471,11.243 v -20.776 c 0,-4.147 -3.361,-7.508 -7.508,-7.508 -4.147,0 -7.508,3.361 -7.508,7.508 v 20.775 l -17.47,-11.243 c -3.486,-2.245 -8.132,-1.238 -10.376,2.25 -2.245,3.487 -1.237,8.133 2.25,10.376 l 19.231,12.376 -19.231,12.376 c -3.487,2.244 -4.495,6.889 -2.25,10.376 1.435,2.23 3.852,3.446 6.32,3.446 1.391,0 2.799,-0.386 4.056,-1.196 l 17.47,-11.243 v 20.775 c 0,4.147 3.361,7.508 7.508,7.508 4.147,0 7.508,-3.361 7.508,-7.508 v -20.776 l 17.471,11.243 c 1.257,0.809 2.664,1.196 4.056,1.196 2.467,0 4.885,-1.216 6.32,-3.446 2.245,-3.487 1.237,-8.133 -2.25,-10.376 L 85.781,255.99 105.012,243.614 c 3.487,-2.241 4.495,-6.886 2.25,-10.374 z"
         id="path11492" />
      <path
         inkscape:connector-curvature="0"
         style="fill:#57565c"
         d="m 125.982,278.744 c 1.435,2.23 3.852,3.446 6.32,3.446 1.391,0 2.799,-0.386 4.056,-1.196 l 17.471,-11.243 v 20.776 c 0,4.147 3.361,7.508 7.508,7.508 4.147,0 7.508,-3.361 7.508,-7.508 v -20.775 l 17.47,11.243 c 1.257,0.809 2.664,1.196 4.056,1.196 2.467,0 4.885,-1.216 6.32,-3.446 2.245,-3.487 1.237,-8.133 -2.25,-10.376 l -19.231,-12.376 19.231,-12.376 c 3.487,-2.244 4.495,-6.889 2.25,-10.376 -2.245,-3.486 -6.888,-4.497 -10.376,-2.25 l -17.47,11.243 v -20.775 c 0,-4.147 -3.361,-7.508 -7.508,-7.508 -4.147,0 -7.508,3.361 -7.508,7.508 v 20.776 l -17.471,-11.243 c -3.487,-2.245 -8.133,-1.238 -10.376,2.25 -2.245,3.487 -1.237,8.133 2.25,10.376 l 19.231,12.376 -19.231,12.376 c -3.487,2.242 -4.495,6.887 -2.25,10.374 z"
         id="path11494" />
      <path
         inkscape:connector-curvature="0"
         style="fill:#57565c"
         d="m 286.121,233.24 c -2.245,-3.486 -6.888,-4.497 -10.376,-2.25 l -17.471,11.243 v -20.775 c 0,-4.147 -3.361,-7.508 -7.508,-7.508 -4.147,0 -7.508,3.361 -7.508,7.508 v 20.775 L 225.787,230.99 c -3.486,-2.245 -8.134,-1.238 -10.376,2.25 -2.245,3.487 -1.237,8.133 2.25,10.376 l 19.231,12.376 -19.231,12.376 c -3.487,2.244 -4.495,6.889 -2.25,10.376 1.435,2.23 3.852,3.446 6.32,3.446 1.391,0 2.799,-0.386 4.056,-1.196 l 17.471,-11.243 v 20.775 c 0,4.147 3.361,7.508 7.508,7.508 4.147,0 7.508,-3.361 7.508,-7.508 v -20.775 l 17.471,11.243 c 1.257,0.809 2.664,1.196 4.056,1.196 2.467,0 4.886,-1.216 6.32,-3.446 2.245,-3.487 1.237,-8.133 -2.25,-10.376 l -19.231,-12.376 19.231,-12.376 c 3.487,-2.243 4.495,-6.888 2.25,-10.376 z"
         id="path11496" />
      <path
         inkscape:connector-curvature="0"
         style="fill:#57565c"
         d="m 332.687,290.527 c 0,4.147 3.361,7.508 7.508,7.508 4.147,0 7.508,-3.361 7.508,-7.508 v -20.776 l 17.471,11.243 c 1.257,0.809 2.664,1.196 4.056,1.196 2.467,0 4.885,-1.216 6.32,-3.446 2.245,-3.487 1.237,-8.133 -2.25,-10.376 L 354.069,255.992 373.3,243.616 c 3.487,-2.244 4.495,-6.889 2.25,-10.376 -2.244,-3.486 -6.888,-4.497 -10.376,-2.25 l -17.471,11.243 v -20.776 c 0,-4.147 -3.361,-7.508 -7.508,-7.508 -4.147,0 -7.508,3.361 -7.508,7.508 v 20.775 l -17.47,-11.243 c -3.486,-2.245 -8.132,-1.238 -10.376,2.25 -2.245,3.487 -1.237,8.133 2.25,10.376 l 19.231,12.376 -19.231,12.376 c -3.487,2.244 -4.495,6.889 -2.25,10.376 1.435,2.23 3.852,3.446 6.32,3.446 1.391,0 2.799,-0.386 4.056,-1.196 l 17.47,-11.243 z"
         id="path11498" />
    </g>
    <g
       id="g11502" />
    <g
       id="g11504" />
    <g
       id="g11506" />
    <g
       id="g11508" />
    <g
       id="g11510" />
    <g
       id="g11512" />
    <g
       id="g11514" />
    <g
       id="g11516" />
    <g
       id="g11518" />
    <g
       id="g11520" />
    <g
       id="g11522" />
    <g
       id="g11524" />
    <g
       id="g11526" />
    <g
       id="g11528" />
    <g
       id="g11530" />
  </g>
  <g
     transform="matrix(0.02232415,0,0,0.02232415,63.673795,55.85396)"
     id="g11653">
    <path
       inkscape:connector-curvature="0"
       style="fill:#303c42"
       d="M 469.333,149.333 H 42.667 C 19.135,149.333 0,168.469 0,192 v 128 c 0,23.531 19.135,42.667 42.667,42.667 H 469.334 C 492.865,362.667 512,343.531 512,320 V 192 c 0,-23.531 -19.135,-42.667 -42.667,-42.667 z"
       id="path11564" />
    <path
       inkscape:connector-curvature="0"
       style="fill:#1e88e5"
       d="m 490.667,320 c 0,11.76 -9.573,21.333 -21.333,21.333 H 42.667 C 30.907,341.333 21.334,331.76 21.334,320 V 192 c 0,-11.76 9.573,-21.333 21.333,-21.333 h 426.667 c 11.76,0 21.333,9.573 21.333,21.333 z"
       id="path11566" />
    <path
       inkscape:connector-curvature="0"
       style="fill:url(#SVGID_1_)"
       d="m 319.949,237.521 11.279,-6.512 c -0.102,-0.091 -0.234,-0.142 -0.34,-0.229 -0.417,-0.5 -13.017,-13.1 -13.517,-13.517 1.54,1.849 2.578,4.139 2.578,6.737 z m 131.185,-4.824 -0.003,-0.001 c 0.611,0.625 1.284,1.178 1.741,1.971 2.948,5.104 1.198,11.625 -3.906,14.573 l -11.707,6.76 11.707,6.76 c 5.104,2.948 6.854,9.469 3.906,14.573 -1.979,3.427 -5.563,5.333 -9.25,5.333 -1.813,0 -3.646,-0.458 -5.323,-1.427 l -11.708,-6.76 V 288 c 0,5.896 -4.771,10.667 -10.667,10.667 -5.896,0 -10.667,-4.771 -10.667,-10.667 v -13.521 l -11.708,6.76 c -0.091,0.052 -0.197,0.027 -0.288,0.077 -26.435,-26.411 -48.563,-48.473 -48.77,-48.62 l -0.003,-0.001 c 0.611,0.625 1.284,1.178 1.741,1.971 2.948,5.104 1.198,11.625 -3.906,14.573 l -11.706,6.761 11.707,6.76 c 5.104,2.948 6.854,9.469 3.906,14.573 -1.979,3.427 -5.563,5.333 -9.25,5.333 -1.813,0 -3.646,-0.458 -5.323,-1.427 l -11.708,-6.76 V 288 c 0,5.896 -4.771,10.667 -10.667,10.667 -5.896,0 -10.667,-4.771 -10.667,-10.667 v -13.521 l -11.708,6.76 c -0.09,0.052 -0.195,0.027 -0.286,0.077 -26.435,-26.411 -48.563,-48.473 -48.77,-48.62 l -0.003,-0.001 c 0.611,0.625 1.284,1.178 1.741,1.971 2.948,5.104 1.198,11.625 -3.906,14.573 l -11.706,6.761 11.707,6.76 c 5.104,2.948 6.854,9.469 3.906,14.573 -1.979,3.427 -5.563,5.333 -9.25,5.333 -1.813,0 -3.646,-0.458 -5.323,-1.427 l -11.708,-6.76 V 288 c 0,5.896 -4.771,10.667 -10.667,10.667 -5.896,0 -10.667,-4.771 -10.667,-10.667 v -13.521 l -11.708,6.76 c -0.091,0.052 -0.197,0.027 -0.288,0.077 -26.435,-26.411 -48.563,-48.473 -48.77,-48.62 l -0.003,-0.001 c 0.611,0.625 1.284,1.178 1.741,1.971 2.948,5.104 1.198,11.625 -3.906,14.573 l -11.706,6.761 11.707,6.76 c 5.104,2.948 6.854,9.469 3.906,14.573 -1.979,3.427 -5.563,5.333 -9.25,5.333 -1.813,0 -3.646,-0.458 -5.323,-1.427 l -11.708,-6.76 V 288 c 0,5.896 -4.771,10.667 -10.667,10.667 -5.896,0 -10.667,-4.771 -10.667,-10.667 v -13.521 l -11.708,6.76 c -1.677,0.969 -3.51,1.427 -5.323,1.427 -3.688,0 -7.271,-1.906 -9.25,-5.333 0.161,0.28 31.493,31.596 63.938,64 h 346.344 c 11.76,0 21.333,-9.573 21.333,-21.333 v -47.911 c -22.125,-22.098 -39.351,-39.263 -39.533,-39.392 z m -59.862,25.218 -8.389,4.845 11.707,-6.76 -11.707,-6.76 c -0.788,-0.456 -1.34,-1.125 -1.964,-1.732 0.367,0.517 10.058,10.084 10.353,10.407 z m 35.319,-20.394 11.279,-6.512 c -0.102,-0.091 -0.234,-0.142 -0.34,-0.229 -0.417,-0.5 -13.017,-13.1 -13.517,-13.517 1.54,1.849 2.578,4.139 2.578,6.737 z m -141.961,20.394 -8.389,4.845 11.707,-6.76 -11.707,-6.76 c -0.788,-0.456 -1.34,-1.125 -1.964,-1.732 0.368,0.517 10.058,10.084 10.353,10.407 z m -71.321,-20.394 11.279,-6.512 c -0.102,-0.091 -0.234,-0.142 -0.34,-0.229 -0.417,-0.5 -13.017,-13.1 -13.517,-13.517 1.54,1.849 2.578,4.139 2.578,6.737 z M 71.348,257.915 62.959,262.76 74.665,256 62.958,249.24 c -0.788,-0.456 -1.34,-1.125 -1.964,-1.732 0.368,0.517 10.058,10.084 10.354,10.407 z m 35.319,-20.394 11.279,-6.512 c -0.102,-0.091 -0.234,-0.142 -0.34,-0.229 -0.417,-0.5 -13.017,-13.1 -13.517,-13.517 1.54,1.849 2.578,4.139 2.578,6.737 z m 71.323,20.394 -8.389,4.845 11.707,-6.76 -11.707,-6.76 c -0.788,-0.456 -1.34,-1.125 -1.964,-1.732 0.367,0.517 10.057,10.084 10.353,10.407 z"
       id="path11573" />
    <g
       id="g11583">
      <path
         inkscape:connector-curvature="0"
         style="fill:#303c42"
         d="m 132.948,234.667 c -2.958,-5.125 -9.51,-6.844 -14.573,-3.906 l -11.708,6.76 V 224 c 0,-5.896 -4.771,-10.667 -10.667,-10.667 -5.896,0 -10.667,4.771 -10.667,10.667 v 13.521 l -11.708,-6.76 c -5.094,-2.938 -11.625,-1.219 -14.573,3.906 -2.948,5.104 -1.198,11.625 3.906,14.573 l 11.707,6.76 -11.707,6.76 c -5.104,2.948 -6.854,9.469 -3.906,14.573 1.979,3.427 5.563,5.333 9.25,5.333 1.813,0 3.646,-0.458 5.323,-1.427 l 11.708,-6.76 V 288 c 0,5.896 4.771,10.667 10.667,10.667 5.896,0 10.667,-4.771 10.667,-10.667 v -13.521 l 11.708,6.76 c 1.677,0.969 3.51,1.427 5.323,1.427 3.688,0 7.271,-1.906 9.25,-5.333 2.948,-5.104 1.198,-11.625 -3.906,-14.573 l -11.707,-6.76 11.707,-6.76 c 5.104,-2.948 6.854,-9.469 3.906,-14.573 z"
         id="path11575" />
      <path
         inkscape:connector-curvature="0"
         style="fill:#303c42"
         d="m 239.615,234.667 c -2.969,-5.125 -9.5,-6.844 -14.573,-3.906 l -11.708,6.76 V 224 c 0,-5.896 -4.771,-10.667 -10.667,-10.667 -5.896,0 -10.667,4.771 -10.667,10.667 v 13.521 l -11.708,-6.76 c -5.104,-2.938 -11.635,-1.219 -14.573,3.906 -2.948,5.104 -1.198,11.625 3.906,14.573 l 11.707,6.76 -11.707,6.76 c -5.104,2.948 -6.854,9.469 -3.906,14.573 1.979,3.427 5.563,5.333 9.25,5.333 1.813,0 3.646,-0.458 5.323,-1.427 L 192,274.479 V 288 c 0,5.896 4.771,10.667 10.667,10.667 5.896,0 10.667,-4.771 10.667,-10.667 v -13.521 l 11.708,6.76 c 1.677,0.969 3.51,1.427 5.323,1.427 3.688,0 7.271,-1.906 9.25,-5.333 2.948,-5.104 1.198,-11.625 -3.906,-14.573 l -11.708,-6.76 11.707,-6.76 c 5.105,-2.948 6.855,-9.469 3.907,-14.573 z"
         id="path11577" />
      <path
         inkscape:connector-curvature="0"
         style="fill:#303c42"
         d="m 346.281,234.667 c -2.958,-5.125 -9.51,-6.844 -14.573,-3.906 L 320,237.521 V 224 c 0,-5.896 -4.771,-10.667 -10.667,-10.667 -5.896,0 -10.667,4.771 -10.667,10.667 v 13.521 l -11.708,-6.76 c -5.094,-2.938 -11.625,-1.219 -14.573,3.906 -2.948,5.104 -1.198,11.625 3.906,14.573 l 11.707,6.76 -11.707,6.76 c -5.104,2.948 -6.854,9.469 -3.906,14.573 1.979,3.427 5.563,5.333 9.25,5.333 1.813,0 3.646,-0.458 5.323,-1.427 l 11.708,-6.76 V 288 c 0,5.896 4.771,10.667 10.667,10.667 5.896,0 10.667,-4.771 10.667,-10.667 v -13.521 l 11.708,6.76 c 1.677,0.969 3.51,1.427 5.323,1.427 3.688,0 7.271,-1.906 9.25,-5.333 2.948,-5.104 1.198,-11.625 -3.906,-14.573 l -11.707,-6.76 11.707,-6.76 c 5.104,-2.948 6.854,-9.469 3.906,-14.573 z"
         id="path11579" />
      <path
         inkscape:connector-curvature="0"
         style="fill:#303c42"
         d="m 452.948,234.667 c -2.948,-5.125 -9.5,-6.844 -14.573,-3.906 l -11.708,6.76 V 224 c 0,-5.896 -4.771,-10.667 -10.667,-10.667 -5.896,0 -10.667,4.771 -10.667,10.667 v 13.521 l -11.708,-6.76 c -5.115,-2.938 -11.615,-1.219 -14.573,3.906 -2.948,5.104 -1.198,11.625 3.906,14.573 l 11.707,6.76 -11.707,6.76 c -5.104,2.948 -6.854,9.469 -3.906,14.573 1.979,3.427 5.563,5.333 9.25,5.333 1.813,0 3.646,-0.458 5.323,-1.427 l 11.708,-6.76 V 288 c 0,5.896 4.771,10.667 10.667,10.667 5.896,0 10.667,-4.771 10.667,-10.667 v -13.521 l 11.708,6.76 c 1.677,0.969 3.51,1.427 5.323,1.427 3.688,0 7.271,-1.906 9.25,-5.333 2.948,-5.104 1.198,-11.625 -3.906,-14.573 l -11.707,-6.76 11.707,-6.76 c 5.104,-2.948 6.854,-9.469 3.906,-14.573 z"
         id="path11581" />
    </g>
    <path
       inkscape:connector-curvature="0"
       style="fill:url(#SVGID_2_)"
       d="M 469.333,149.333 H 42.667 C 19.135,149.333 0,168.469 0,192 v 128 c 0,23.531 19.135,42.667 42.667,42.667 H 469.334 C 492.865,362.667 512,343.531 512,320 V 192 c 0,-23.531 -19.135,-42.667 -42.667,-42.667 z"
       id="path11590" />
    <g
       id="g11592" />
    <g
       id="g11594" />
    <g
       id="g11596" />
    <g
       id="g11598" />
    <g
       id="g11600" />
    <g
       id="g11602" />
    <g
       id="g11604" />
    <g
       id="g11606" />
    <g
       id="g11608" />
    <g
       id="g11610" />
    <g
       id="g11612" />
    <g
       id="g11614" />
    <g
       id="g11616" />
    <g
       id="g11618" />
    <g
       id="g11620" />
  </g>
  <g
     id="g11230"
     transform="matrix(0.26458334,0,0,0.26458334,61.692366,47.696822)">
    <path
       id="path11154"
       d="M 50.003,20.5 C 49.888,11.801 42.81,4.5 34.084,4.5 28.525,4.5 23.305,7.505 20.423,11.836 19.157,10.993 17.636,10.5 16,10.5 c -4.418,0 -8,3.582 -8,8 0,0.153 0.014,0.302 0.023,0.454 C 8.013,19.136 8,19.32 8,19.5 4.012,21.412 1,25.957 1,30.655 1,37.17 6.33,42.5 12.845,42.5 h 24.507 c 0.138,0 0.272,-0.016 0.408,-0.021 0.137,0.005 0.271,0.021 0.408,0.021 h 9.803 C 54.037,42.5 59,37.537 59,31.472 59,26.101 55.106,21.461 50.003,20.5 Z"
       style="fill:#7fabda;stroke:#7383bf;stroke-width:2;stroke-linecap:round;stroke-miterlimit:10"
       inkscape:connector-curvature="0" />
    <path
       id="path11156"
       d="m 50.003,20.5 c 0,0 -2.535,-0.375 -5.003,0"
       style="fill:#7fabda;stroke:#7383bf;stroke-width:2;stroke-linecap:round;stroke-miterlimit:10"
       inkscape:connector-curvature="0" />
    <path
       id="path11158"
       d="m 8,18.5 c 0,-4.418 3.582,-8 8,-8 4.418,0 8,3.582 8,8"
       style="fill:#7fabda;stroke:#7383bf;stroke-width:2;stroke-linecap:round;stroke-miterlimit:10"
       inkscape:connector-curvature="0" />
    <g
       id="g11170" />
    <g
       id="g11172" />
    <g
       id="g11174" />
    <g
       id="g11176" />
    <g
       id="g11178" />
    <g
       id="g11180" />
    <g
       id="g11182" />
    <g
       id="g11184" />
    <g
       id="g11186" />
    <g
       id="g11188" />
    <g
       id="g11190" />
    <g
       id="g11192" />
    <g
       id="g11194" />
    <g
       id="g11196" />
    <g
       id="g11198" />
  </g>
  <path
     d="M 69.510343,24.493821 69.393924,45.36171"
     id="path10115-3"
     inkscape:connector-curvature="0"
     style="opacity:0.95999995;fill:none;stroke:#000000;stroke-width:0.97922295;stroke-linecap:round;stroke-miterlimit:4;stroke-dasharray:none;marker-start:url(#TriangleInM);marker-end:url(#TriangleOutM-4-8)"
     sodipodi:nodetypes="cc" />
  <path
     style="fill:#ff0000;stroke:#ff0000;stroke-width:1.00010002;marker-end:url(#TriangleOutM-4-3-8-1)"
     inkscape:connector-curvature="0"
     id="path10119-9"
     d="M 30.745607,35.924491 13.816581,31.05586"
     sodipodi:nodetypes="cc" />
  <g
     id="g5355"
     transform="matrix(0.01091281,0,0,0.01091281,5.8726036,26.852654)">
    <path
       id="path5329"
       d="m 383.12891,249.32812 -22.63282,-22.625 -16.96875,-16.97656 -44.78906,-44.78906 -22.63281,-22.61719 -17.44922,-17.4414 -22.625,-22.62891 c -3.12109,-3.125 -8.1875,-3.125 -11.3125,0 L 202.10547,124.87891 26.746094,300.24219 C 1.75,325.23437 1.75,365.75781 26.746094,390.75391 L 94.625,458.63281 c 24.99219,24.9961 65.51953,24.9961 90.51172,0 L 383.12891,260.64063 c 3.12109,-3.125 3.12109,-8.1875 0,-11.31251 z M 168.16797,396.41016 c -21.8711,21.86718 -57.32422,21.86328 -79.195314,-0.004 -21.867187,-21.87109 -21.867187,-57.32422 0,-79.19531 21.871094,-21.86719 57.324214,-21.8711 79.195314,-0.004 21.87109,21.87109 21.87109,57.33203 0,79.20313 z m 0,0"
       inkscape:connector-curvature="0"
       style="fill:#78b9eb" />
    <g
       id="g5339"
       style="fill:#006df0">
      <path
         id="path5331"
         d="M 371.80859,226.70312 484.94531,113.55859 371.81641,0.472656 258.67187,113.56641 241.70312,96.59375 c -6.32812,-6.042969 -16.29296,-6.042969 -22.62109,0 L 21.089844,294.58594 c -28.121094,28.11718 -28.121094,73.70312 0,101.82422 l 67.878906,67.8789 c 28.11719,28.11719 73.70703,28.11719 101.82422,0 L 388.77734,266.30469 c 6.25,-6.25 6.25,-16.38281 0,-22.63281 z m -11.3125,-11.3125 -5.65625,-5.66406 5.65625,-5.65234 -11.3125,-11.3125 -5.65625,5.65625 -33.59765,-33.60156 11.08594,-11.54297 22.51171,22.51172 33.9375,-33.94532 -22.625,-22.625 11.3125,-11.32031 22.63282,22.63281 33.93359,-33.941402 -22.61328,-22.617188 11.3125,-11.320312 50.91016,50.910152 z m 11.32032,-192.335932 28.28906,28.28125 -22.625,22.632812 22.625,22.625 -11.32031,11.32031 -22.63282,-22.640622 -33.9375,33.941402 22.625,22.625 -11.3125,11.32032 -22.74218,-22.75 -22.16797,23.10156 -11.41797,-11.4375 5.64844,-6.13672 -11.77344,-10.83203 -5.19531,5.64844 -5.89453,-5.89063 z M 179.48047,452.97656 c -21.88281,21.83985 -57.31641,21.83985 -79.19922,0 l -67.878906,-67.8789 c -21.835938,-21.88672 -21.835938,-57.31641 0,-79.20313 l 169.703126,-169.70312 67.88672,67.88281 -73.54297,73.54297 11.3125,11.3125 73.54297,-73.54688 67.8789,67.89063 z M 360.49609,271.96094 213.41797,124.87891 l 16.97656,-16.97266 16.96485,16.97266 113.13671,113.13671 16.97657,16.96875 z m 0,0"
         inkscape:connector-curvature="0" />
      <path
         id="path5333"
         d="m 128.57031,292.80859 c -30.535154,0 -56.812498,21.57032 -62.769529,51.51563 -5.957031,29.94531 10.070313,59.92969 38.281249,71.61328 28.20703,11.68359 60.74219,1.8125 77.70313,-23.57422 16.96484,-25.38672 13.6289,-59.22266 -7.96094,-80.8125 -11.97656,-12.03906 -28.27344,-18.78906 -45.25391,-18.74219 z m 33.9336,97.94532 c -16.19141,16.1914 -41.56641,18.69531 -60.60547,5.97265 -19.042971,-12.71875 -26.445315,-37.12109 -17.687502,-58.27734 8.761718,-21.15625 31.250002,-33.17969 53.707032,-28.71485 22.46094,4.46485 38.64062,24.17579 38.64453,47.07422 0.0312,12.73828 -5.03125,24.95703 -14.05859,33.94532 z m 0,0"
         inkscape:connector-curvature="0" />
      <path
         id="path5335"
         d="m 151.19922,254.97656 50.91406,-50.91015 11.3125,11.3125 -50.91016,50.91406 z m 0,0"
         inkscape:connector-curvature="0" />
      <path
         id="path5337"
         d="m 219.08203,322.87109 50.91406,-50.91015 11.3125,11.3125 -50.91406,50.91015 z m 0,0"
         inkscape:connector-curvature="0" />
    </g>
  </g>
  <path
     style="fill:#ff0000;stroke:#ff0000;stroke-width:1.00010002;marker-end:url(#TriangleOutM-4-3-8-1-3)"
     inkscape:connector-curvature="0"
     id="path10119-9-7"
     d="M 47.916883,35.131039 H 66.874379"
     sodipodi:nodetypes="cc" />
</svg>
